<svg width="148" height="51" viewBox="0 0 148 51" fill="none" xmlns="http://www.w3.org/2000/svg">
<g clip-path="url(#clip0_458_1132)">
<path d="M37.7875 16.0227C47.1329 16.0227 52.1785 19.5686 52.1785 26.6604C52.1785 34.6251 47.419 39.3909 35.7233 39.3909H0L7.62597 29.393H36.6404C39.4507 29.393 40.7127 28.5797 40.7127 26.5438C40.7127 24.508 39.4507 23.7542 36.6404 23.7542H15.768C5.90662 23.7542 1.37702 19.2785 1.37702 12.5933C1.37702 5.26585 6.19275 0.5 17.8323 0.5H77.394L69.7681 10.6145H16.9151C14.1636 10.6145 12.8428 11.3112 12.8428 13.2875C12.8428 15.2638 14.1611 16.0201 16.9151 16.0201H37.7875V16.0227Z" fill="#407BFF"/>
<path d="M111.871 39.3909H95.9876L87.4445 29.1003H69.2111V39.3909H57.3417V19.509H90.712C94.3807 19.509 97.2497 17.8228 97.2497 15.1498C97.2497 12.1271 94.7843 10.6145 90.712 10.6145H57.3417L65.0826 0.5H89.7387C98.4555 0.5 109.464 3.28958 109.464 14.3935C109.464 20.4389 105.737 25.4378 99.4289 26.7174C100.747 27.7068 102.18 29.1003 104.819 31.8329L111.873 39.3909H111.871Z" fill="#407BFF"/>
<path d="M120.978 0.5C115.59 0.5 110.772 1.75881 106.95 4.01482C109.745 6.63085 111.25 10.1431 111.25 14.3935C111.25 14.6473 111.245 14.9012 111.229 15.1524C113.133 12.3447 116.699 10.6145 120.978 10.6145H140.246L147.872 0.5H120.978ZM120.978 29.3904C114.86 29.3904 110.274 26.0206 109.786 20.9932C108.388 23.8604 106.053 26.119 103.026 27.4659C103.89 28.2973 104.881 29.3075 106.094 30.5637L113.401 38.3911C115.751 39.0412 118.293 39.3909 120.978 39.3909H140.246L147.872 29.3904H120.978Z" fill="#FFC440"/>
<path d="M4.05441 46.8427C4.03908 46.6588 3.96499 46.5163 3.83725 46.4127C3.70696 46.3091 3.52557 46.2599 3.28542 46.2599C3.12703 46.2599 2.99674 46.2806 2.89199 46.3221C2.78724 46.3635 2.70805 46.4205 2.6544 46.493C2.60075 46.5656 2.5752 46.6484 2.57264 46.7417C2.57009 46.8194 2.58542 46.8867 2.61863 46.9437C2.65184 47.0007 2.70294 47.0525 2.76681 47.0965C2.83068 47.1406 2.90987 47.1794 3.00184 47.2131C3.09382 47.2468 3.19856 47.2753 3.31353 47.3012L3.74784 47.4022C3.9982 47.4566 4.21791 47.5317 4.40952 47.6223C4.60113 47.713 4.76208 47.8244 4.89237 47.9487C5.02266 48.073 5.1223 48.2207 5.18872 48.3864C5.25515 48.5522 5.29091 48.7361 5.29347 48.9407C5.29347 49.2645 5.21172 49.5416 5.05077 49.7721C4.88982 50.0027 4.66244 50.1814 4.36353 50.3057C4.06463 50.43 3.70441 50.4896 3.28542 50.4896C2.86644 50.4896 2.49345 50.4249 2.18177 50.2979C1.87008 50.171 1.62483 49.9742 1.44855 49.7126C1.27482 49.451 1.18541 49.1194 1.1803 48.7205H2.35038C2.3606 48.8863 2.40403 49.0236 2.48067 49.1324C2.55732 49.2412 2.66462 49.3266 2.80002 49.381C2.93542 49.438 3.09382 49.4665 3.27265 49.4665C3.43616 49.4665 3.57667 49.4432 3.69419 49.3992C3.81171 49.3551 3.89857 49.2904 3.96244 49.2127C4.02375 49.1324 4.05696 49.0417 4.05952 48.9381C4.05952 48.8423 4.02886 48.7594 3.9701 48.6895C3.91134 48.6195 3.82448 48.56 3.70441 48.5082C3.58433 48.4564 3.4336 48.4097 3.24966 48.3683L2.72082 48.244C2.28396 48.1429 1.93906 47.9772 1.6887 47.7492C1.43833 47.5213 1.31315 47.2131 1.31315 46.8246C1.31315 46.5086 1.3949 46.2314 1.56351 45.9931C1.73213 45.7548 1.96717 45.5684 2.26607 45.4363C2.56498 45.3042 2.90732 45.2368 3.29053 45.2368C3.67375 45.2368 4.0212 45.3042 4.30988 45.4388C4.59857 45.5735 4.82339 45.76 4.98179 46.0035C5.14018 46.2444 5.22193 46.5241 5.22704 46.8427H4.05696H4.05441Z" fill="#407BFF"/>
<path d="M5.91174 50.43V45.3093H7.13292V47.3633H9.12308V45.3093H10.3417V50.43H9.12308V48.3735H7.13292V50.43H5.91174Z" fill="#407BFF"/>
<path d="M11.103 50.43V45.3093H13.1903C13.5684 45.3093 13.8954 45.3793 14.1713 45.5165C14.4472 45.6538 14.6593 45.8507 14.81 46.1071C14.9607 46.3635 15.0348 46.6666 15.0348 47.0162C15.0348 47.3659 14.9582 47.6715 14.8049 47.9202C14.6516 48.1688 14.4344 48.3553 14.1534 48.4848C13.8724 48.6143 13.5403 48.6791 13.1545 48.6791H11.8362V47.7052H12.9297C13.1136 47.7052 13.2669 47.6819 13.3921 47.6301C13.5173 47.5809 13.6093 47.5058 13.6731 47.4047C13.737 47.3037 13.7702 47.1742 13.7702 47.0162C13.7702 46.8582 13.737 46.7261 13.6731 46.6225C13.6093 46.5189 13.5147 46.4386 13.3895 46.3868C13.2644 46.335 13.1111 46.3091 12.9271 46.3091H12.3268V50.4326H11.1056L11.103 50.43ZM13.9465 48.0885L15.2034 50.4274H13.8724L12.6384 48.0885H13.9465Z" fill="#407BFF"/>
<path d="M15.7015 50.43V45.3093H19.222V46.3143H16.9202V47.3633H19.0406V48.3709H16.9202V49.4225H19.222V50.4274H15.7015V50.43Z" fill="#407BFF"/>
<path d="M19.986 50.43V45.3093H23.5064V46.3143H21.2046V47.3633H23.325V48.3709H21.2046V49.4225H23.5064V50.4274H19.986V50.43Z" fill="#407BFF"/>
<path d="M25.7673 50.43V45.3093H27.8546C28.2327 45.3093 28.5597 45.3793 28.8356 45.5165C29.1115 45.6538 29.3236 45.8507 29.4743 46.1071C29.625 46.3635 29.6991 46.6666 29.6991 47.0162C29.6991 47.3659 29.6225 47.6715 29.4692 47.9202C29.3159 48.1688 29.0987 48.3553 28.8177 48.4848C28.5367 48.6143 28.2046 48.6791 27.8188 48.6791H26.5006V47.7052H27.594C27.7779 47.7052 27.9312 47.6819 28.0564 47.6301C28.1816 47.5809 28.2736 47.5058 28.3374 47.4047C28.4013 47.3037 28.4345 47.1742 28.4345 47.0162C28.4345 46.8582 28.4013 46.7261 28.3374 46.6225C28.2736 46.5189 28.179 46.4386 28.0538 46.3868C27.9287 46.335 27.7754 46.3091 27.5914 46.3091H26.9911V50.4326H25.7699L25.7673 50.43ZM28.6082 48.0885L29.8652 50.4274H28.5341L27.3002 48.0885H28.6082Z" fill="#407BFF"/>
<path d="M31.4543 50.43H30.1437L31.8477 45.3093H33.4725L35.1766 50.43H33.8634L32.678 46.5992H32.6397L31.4568 50.43H31.4543ZM31.2805 48.4149H34.0218V49.3551H31.2805V48.4149Z" fill="#407BFF"/>
<path d="M37.7722 45.3093H38.9755V48.85C38.9755 49.1816 38.8963 49.4717 38.7405 49.7177C38.5872 49.9664 38.3726 50.1581 38.1018 50.2928C37.831 50.4274 37.5142 50.4974 37.1591 50.4974C36.8423 50.4974 36.5561 50.4404 36.3007 50.329C36.0426 50.2176 35.8383 50.0441 35.6875 49.8084C35.5368 49.5727 35.4602 49.2722 35.4627 48.907H36.6788C36.6839 49.0391 36.7094 49.1505 36.7529 49.2437C36.7989 49.337 36.8602 49.4069 36.9419 49.4535C37.0237 49.5002 37.1182 49.5235 37.2306 49.5235C37.343 49.5235 37.4452 49.4976 37.527 49.4484C37.6087 49.3992 37.67 49.3214 37.7109 49.223C37.7518 49.1246 37.7748 48.9977 37.7773 48.85V45.3093H37.7722Z" fill="#407BFF"/>
<path d="M45.8198 47.1638H44.5858C44.5705 47.0343 44.5347 46.9204 44.4836 46.8167C44.4325 46.7131 44.3661 46.6251 44.2818 46.5526C44.1975 46.48 44.0978 46.423 43.9854 46.3842C43.873 46.3453 43.7453 46.3246 43.6073 46.3246C43.3621 46.3246 43.1526 46.3842 42.9737 46.5059C42.7949 46.6277 42.6621 46.8038 42.5675 47.0343C42.473 47.2648 42.4245 47.542 42.4245 47.8683C42.4245 48.1947 42.473 48.4926 42.5675 48.7231C42.6621 48.9536 42.8 49.1246 42.9737 49.2411C43.1475 49.3577 43.357 49.4147 43.5971 49.4147C43.7325 49.4147 43.8551 49.3965 43.965 49.3628C44.0748 49.3266 44.1745 49.2774 44.2588 49.21C44.3431 49.1427 44.4121 49.0598 44.4683 48.9614C44.5245 48.863 44.5628 48.7542 44.5832 48.6298L45.8172 48.6376C45.7968 48.8655 45.7303 49.0883 45.623 49.3085C45.5157 49.5286 45.3676 49.7281 45.1811 49.9094C44.9946 50.0907 44.7646 50.2331 44.4964 50.3419C44.2281 50.4481 43.919 50.5025 43.5741 50.5025C43.1168 50.5025 42.708 50.4015 42.3478 50.1969C41.9876 49.9923 41.7015 49.6944 41.4945 49.3033C41.285 48.9122 41.1803 48.4356 41.1803 47.8735C41.1803 47.3115 41.2876 46.8323 41.4996 46.4412C41.7117 46.0501 41.9978 45.7522 42.3606 45.5476C42.7234 45.343 43.127 45.2419 43.5767 45.2419C43.8832 45.2419 44.1643 45.286 44.4248 45.3715C44.6854 45.4569 44.9128 45.5813 45.1095 45.747C45.3062 45.9102 45.4672 46.1122 45.5898 46.3505C45.7124 46.5888 45.7891 46.8608 45.8198 47.169V47.1638Z" fill="#407BFF"/>
<path d="M46.5146 50.43V45.3093H47.7358V47.3633H49.726V45.3093H50.9446V50.43H49.726V48.3735H47.7358V50.43H46.5146Z" fill="#407BFF"/>
<path d="M52.7994 50.43H51.4888L53.1928 45.3093H54.8176L56.5217 50.43H55.2085L54.0231 46.5992H53.9848L52.8019 50.43H52.7994ZM52.6256 48.4149H55.3669V49.3551H52.6256V48.4149Z" fill="#407BFF"/>
<path d="M57.0658 45.3093H58.5782L59.8607 48.4797H59.9195L61.202 45.3093H62.7144V50.43H61.5264V47.2856H61.4855L60.272 50.3989H59.5133L58.2997 47.2701H58.2589V50.4326H57.0709V45.3119L57.0658 45.3093Z" fill="#407BFF"/>
<path d="M66.5338 45.3093H67.7524V48.6118C67.7524 48.9925 67.663 49.3266 67.4842 49.609C67.3053 49.8913 67.055 50.1089 66.7356 50.2643C66.4163 50.4171 66.0433 50.4948 65.6192 50.4948C65.1951 50.4948 64.8144 50.4171 64.4951 50.2643C64.1757 50.1089 63.9254 49.8913 63.7491 49.609C63.5728 49.3266 63.4834 48.9951 63.4834 48.6118V45.3093H64.7046V48.503C64.7046 48.6791 64.7429 48.8371 64.8195 48.9744C64.8962 49.1116 65.0035 49.2204 65.1414 49.2981C65.2794 49.3758 65.4403 49.4147 65.6217 49.4147C65.8031 49.4147 65.9641 49.3758 66.102 49.2981C66.24 49.2204 66.3473 49.1116 66.4239 48.9744C66.5006 48.8371 66.5389 48.6791 66.5389 48.503V45.3093H66.5338Z" fill="#407BFF"/>
<path d="M72.8133 45.3093V50.43H71.7787L69.7681 47.4747H69.7348V50.43H68.5137V45.3093H69.5637L71.5513 48.2595H71.5922V45.3093H72.8108H72.8133Z" fill="#407BFF"/>
<path d="M75.4448 50.43H73.5773V45.3093H75.4422C75.9558 45.3093 76.4003 45.4103 76.7733 45.615C77.1463 45.8196 77.4324 46.1123 77.6342 46.4956C77.8361 46.8789 77.9383 47.3348 77.9383 47.8658C77.9383 48.3968 77.8386 48.8578 77.6368 49.2412C77.435 49.6245 77.1488 49.9172 76.7758 50.1218C76.4028 50.3264 75.9583 50.4274 75.4474 50.4274L75.4448 50.43ZM74.7984 49.3733H75.3988C75.6824 49.3733 75.92 49.324 76.1167 49.2282C76.3134 49.1298 76.4616 48.9718 76.5638 48.7516C76.666 48.5315 76.7145 48.2362 76.7145 47.8684C76.7145 47.5006 76.6634 47.2053 76.5612 46.9877C76.459 46.7676 76.3083 46.6096 76.1116 46.5137C75.9123 46.4153 75.6696 46.3687 75.3809 46.3687H74.7984V49.3784V49.3733Z" fill="#407BFF"/>
<path d="M79.7393 50.43H78.4261L80.1302 45.3093H81.755L83.459 50.43H82.1484L80.963 46.5992H80.9247L79.7418 50.43H79.7393ZM79.5656 48.4149H82.3068V49.3551H79.5656V48.4149Z" fill="#407BFF"/>
<path d="M90.0836 47.1638H88.8496C88.8343 47.0343 88.7985 46.9204 88.7474 46.8167C88.6963 46.7131 88.6299 46.6251 88.5456 46.5526C88.4613 46.48 88.3616 46.423 88.2492 46.3842C88.1343 46.3453 88.0091 46.3246 87.8711 46.3246C87.6259 46.3246 87.4164 46.3842 87.2375 46.5059C87.0587 46.6277 86.9259 46.8038 86.8313 47.0343C86.7368 47.2648 86.6908 47.542 86.6908 47.8683C86.6908 48.1947 86.7394 48.4926 86.8339 48.7231C86.931 48.951 87.0664 49.1246 87.2401 49.2411C87.4138 49.3577 87.6233 49.4147 87.8635 49.4147C87.9989 49.4147 88.1215 49.3965 88.2313 49.3628C88.3412 49.3266 88.4408 49.2774 88.5252 49.21C88.6095 49.1427 88.6784 49.0598 88.7346 48.9614C88.7883 48.863 88.8292 48.7542 88.8496 48.6298L90.0836 48.6376C90.0631 48.8655 89.9967 49.0883 89.8894 49.3085C89.7821 49.5286 89.6339 49.7281 89.4474 49.9094C89.2609 50.0907 89.031 50.2331 88.7627 50.3419C88.4945 50.4481 88.1854 50.5025 87.8405 50.5025C87.3832 50.5025 86.9744 50.4015 86.6142 50.1969C86.254 49.9923 85.9678 49.6944 85.7609 49.3033C85.5514 48.9122 85.4467 48.4356 85.4467 47.8735C85.4467 47.3115 85.554 46.8323 85.766 46.4412C85.978 46.0501 86.2642 45.7522 86.627 45.5476C86.9897 45.343 87.3934 45.2419 87.843 45.2419C88.1496 45.2419 88.4306 45.286 88.6912 45.3715C88.9518 45.4569 89.1792 45.5813 89.3759 45.747C89.5726 45.9102 89.7336 46.1122 89.8562 46.3505C89.9788 46.5888 90.0555 46.8608 90.0861 47.169L90.0836 47.1638Z" fill="#FFC440"/>
<path d="M95.5456 47.8684C95.5456 48.4305 95.4383 48.9096 95.2262 49.3007C95.0116 49.6919 94.7229 49.9897 94.3602 50.1943C93.9948 50.399 93.5886 50.5 93.1364 50.5C92.6842 50.5 92.2729 50.3964 91.9102 50.1917C91.5474 49.9871 91.2587 49.6893 91.0466 49.2981C90.8346 48.907 90.7273 48.4305 90.7273 47.8684C90.7273 47.3063 90.8346 46.8272 91.0466 46.4361C91.2587 46.0449 91.5474 45.7471 91.9102 45.5425C92.2729 45.3378 92.6817 45.2368 93.1364 45.2368C93.5912 45.2368 93.9974 45.3378 94.3602 45.5425C94.7229 45.7471 95.0142 46.0424 95.2262 46.4361C95.4408 46.8272 95.5456 47.3063 95.5456 47.8684ZM94.2989 47.8684C94.2989 47.5343 94.2529 47.2519 94.1609 47.024C94.0689 46.7961 93.9361 46.62 93.7624 46.5008C93.5886 46.3817 93.3791 46.3247 93.1364 46.3247C92.8937 46.3247 92.6868 46.3842 92.5131 46.5008C92.3393 46.62 92.2039 46.7935 92.112 47.024C92.02 47.2545 91.974 47.5369 91.974 47.8684C91.974 48.1999 92.02 48.4823 92.112 48.7128C92.2039 48.9433 92.3393 49.1168 92.5131 49.236C92.6868 49.3551 92.8963 49.4147 93.1364 49.4147C93.3766 49.4147 93.5886 49.3551 93.7624 49.236C93.9361 49.1168 94.0689 48.9433 94.1609 48.7128C94.2529 48.4823 94.2989 48.1999 94.2989 47.8684Z" fill="#FFC440"/>
<path d="M100.556 45.3093V50.43H99.5209L97.5103 47.4747H97.4796V50.43H96.2584V45.3093H97.3084L99.296 48.2595H99.3369V45.3093H100.556Z" fill="#FFC440"/>
<path d="M104.048 46.8427C104.033 46.6588 103.959 46.5163 103.831 46.4127C103.7 46.3091 103.519 46.2599 103.279 46.2599C103.121 46.2599 102.99 46.2806 102.886 46.3221C102.781 46.3635 102.702 46.4205 102.648 46.493C102.594 46.5656 102.569 46.6484 102.566 46.7417C102.564 46.8194 102.579 46.8867 102.612 46.9437C102.645 47.0007 102.696 47.0525 102.76 47.0965C102.824 47.1406 102.903 47.1794 102.995 47.2131C103.087 47.2468 103.192 47.2753 103.307 47.3012L103.741 47.4022C103.992 47.4566 104.211 47.5317 104.403 47.6223C104.595 47.713 104.756 47.8244 104.886 47.9487C105.016 48.073 105.116 48.2207 105.182 48.3864C105.249 48.5522 105.284 48.7361 105.287 48.9407C105.287 49.2645 105.205 49.5416 105.044 49.7721C104.886 50.0027 104.656 50.1814 104.357 50.3057C104.058 50.43 103.698 50.4896 103.279 50.4896C102.86 50.4896 102.487 50.4249 102.175 50.2979C101.861 50.1684 101.618 49.9742 101.442 49.7126C101.268 49.451 101.179 49.1194 101.174 48.7205H102.344C102.354 48.8863 102.398 49.0236 102.474 49.1324C102.551 49.2412 102.658 49.3266 102.794 49.381C102.929 49.438 103.087 49.4665 103.266 49.4665C103.43 49.4665 103.57 49.4432 103.688 49.3992C103.803 49.3551 103.892 49.2904 103.956 49.2127C104.017 49.1324 104.05 49.0417 104.053 48.9381C104.053 48.8423 104.022 48.7594 103.964 48.6895C103.905 48.6195 103.818 48.56 103.698 48.5082C103.578 48.4564 103.427 48.4097 103.243 48.3683L102.714 48.244C102.277 48.1429 101.933 47.9772 101.682 47.7492C101.432 47.5213 101.307 47.2131 101.307 46.8246C101.307 46.5086 101.388 46.2314 101.557 45.9931C101.726 45.7548 101.961 45.5684 102.26 45.4363C102.559 45.3042 102.901 45.2368 103.284 45.2368C103.667 45.2368 104.015 45.3042 104.303 45.4388C104.592 45.5735 104.817 45.76 104.975 46.0035C105.134 46.2444 105.215 46.5241 105.221 46.8427H104.053H104.048Z" fill="#FFC440"/>
<path d="M108.961 45.3093H110.179V48.6118C110.179 48.9925 110.09 49.3266 109.911 49.609C109.732 49.8913 109.482 50.1089 109.162 50.2643C108.843 50.4171 108.47 50.4948 108.046 50.4948C107.622 50.4948 107.241 50.4171 106.922 50.2643C106.603 50.1089 106.352 49.8913 106.176 49.609C106 49.3266 105.91 48.9951 105.91 48.6118V45.3093H107.131V48.503C107.131 48.6791 107.17 48.8371 107.246 48.9744C107.323 49.1116 107.43 49.2204 107.568 49.2981C107.706 49.3758 107.867 49.4147 108.049 49.4147C108.23 49.4147 108.391 49.3758 108.529 49.2981C108.667 49.2204 108.774 49.1116 108.851 48.9744C108.927 48.8371 108.966 48.6791 108.966 48.503V45.3093H108.961Z" fill="#FFC440"/>
<path d="M110.943 50.43V45.3093H112.164V49.4251H114.264V50.43H110.943Z" fill="#FFC440"/>
<path d="M114.732 46.3143V45.3093H119.001V46.3143H117.471V50.43H116.267V46.3143H114.734H114.732Z" fill="#FFC440"/>
<path d="M120.692 50.43H119.379L121.083 45.3093H122.708L124.412 50.43H123.101L121.916 46.5992H121.878L120.695 50.43H120.692ZM120.516 48.4149H123.257V49.3551H120.516V48.4149Z" fill="#FFC440"/>
<path d="M129.256 45.3093V50.43H128.221L126.21 47.4747H126.18V50.43H124.959V45.3093H126.009L127.996 48.2595H128.037V45.3093H129.256Z" fill="#FFC440"/>
<path d="M134.603 47.1638H133.369C133.354 47.0343 133.318 46.9204 133.267 46.8167C133.216 46.7131 133.149 46.6251 133.065 46.5526C132.981 46.48 132.881 46.423 132.769 46.3842C132.654 46.3453 132.528 46.3246 132.39 46.3246C132.145 46.3246 131.936 46.3842 131.757 46.5059C131.578 46.6277 131.445 46.8038 131.351 47.0343C131.256 47.2648 131.21 47.542 131.21 47.8683C131.21 48.1947 131.259 48.4926 131.353 48.7231C131.45 48.951 131.586 49.1246 131.759 49.2411C131.933 49.3577 132.143 49.4147 132.383 49.4147C132.518 49.4147 132.641 49.3965 132.751 49.3628C132.86 49.3266 132.96 49.2774 133.044 49.21C133.129 49.1427 133.198 49.0598 133.254 48.9614C133.308 48.863 133.348 48.7542 133.369 48.6298L134.603 48.6376C134.582 48.8655 134.516 49.0883 134.409 49.3085C134.301 49.5286 134.153 49.7281 133.967 49.9094C133.78 50.0907 133.55 50.2331 133.282 50.3419C133.014 50.4481 132.705 50.5025 132.36 50.5025C131.902 50.5025 131.494 50.4015 131.133 50.1969C130.773 49.9923 130.487 49.6944 130.28 49.3033C130.071 48.9122 129.966 48.4356 129.966 47.8735C129.966 47.3115 130.073 46.8323 130.285 46.4412C130.497 46.0501 130.783 45.7522 131.146 45.5476C131.509 45.343 131.913 45.2419 132.362 45.2419C132.669 45.2419 132.95 45.286 133.21 45.3715C133.471 45.4569 133.698 45.5813 133.895 45.747C134.092 45.9102 134.253 46.1122 134.375 46.3505C134.498 46.5888 134.575 46.8608 134.605 47.169L134.603 47.1638Z" fill="#FFC440"/>
<path d="M135.047 45.3093H136.412L137.48 47.4514H137.523L138.591 45.3093H139.955L138.108 48.7205V50.43H136.894V48.7205L135.047 45.3093Z" fill="#FFC440"/>
</g>
<defs>
<clipPath id="clip0_458_1132">
<rect width="147.872" height="50" fill="white" transform="translate(0 0.5)"/>
</clipPath>
</defs>
</svg>
