<svg width="401" height="356" viewBox="0 0 401 356" fill="none" xmlns="http://www.w3.org/2000/svg">
<g clip-path="url(#clip0_264_6984)">
<path d="M355.308 276.44H210.708C208.124 276.44 206.02 273.936 206.02 270.864V20.28C206.02 17.2 208.124 14.704 210.708 14.704H355.308C357.892 14.704 359.996 17.208 359.996 20.28V270.864C359.996 273.944 357.892 276.44 355.308 276.44ZM210.708 14.936C208.236 14.936 206.22 17.336 206.22 20.28V270.864C206.22 273.808 208.236 276.208 210.708 276.208H355.308C357.78 276.208 359.796 273.808 359.796 270.864V20.28C359.796 17.336 357.78 14.936 355.308 14.936H210.708Z" fill="#E0E0E0"/>
<path d="M188.564 276.44H43.9723C41.3883 276.44 39.2843 273.936 39.2843 270.864V20.28C39.2843 17.2 41.3883 14.704 43.9723 14.704H188.572C191.156 14.704 193.26 17.208 193.26 20.28V270.864C193.26 273.944 191.156 276.44 188.572 276.44H188.564ZM43.9723 14.936C41.5003 14.936 39.4843 17.336 39.4843 20.28V270.864C39.4843 273.808 41.5003 276.208 43.9723 276.208H188.572C191.044 276.208 193.06 273.808 193.06 270.864V20.28C193.06 17.336 191.044 14.936 188.572 14.936H43.9723Z" fill="#E0E0E0"/>
<path d="M400.172 311.4H0.172363V311.6H400.172V311.4Z" fill="#E0E0E0"/>
<path d="M54.3563 322.816H41.5083V323.016H54.3563V322.816Z" fill="#E0E0E0"/>
<path d="M179.276 320.648H136.452V320.848H179.276V320.648Z" fill="#E0E0E0"/>
<path d="M84.1564 330.248H55.1564V330.448H84.1564V330.248Z" fill="#E0E0E0"/>
<path d="M337.404 320.544H302.852V320.744H337.404V320.544Z" fill="#E0E0E0"/>
<path d="M349.596 320.544H344.532V320.744H349.596V320.544Z" fill="#E0E0E0"/>
<path d="M296.252 325.528H253.14V325.728H296.252V325.528Z" fill="#E0E0E0"/>
<path d="M78.1323 125.504H27.9163V167.856H78.1323V125.504Z" fill="#F5F5F5"/>
<path d="M78.1323 125.504H27.9163V134.024H78.1323V125.504Z" fill="#E0E0E0"/>
<path d="M36.8604 138.704H32.4044V143.16H36.8604V138.704Z" fill="#E0E0E0"/>
<path d="M44.3002 138.704H39.8442V143.16H44.3002V138.704Z" fill="#E0E0E0"/>
<path d="M51.7482 138.704H47.2922V143.16H51.7482V138.704Z" fill="#E0E0E0"/>
<path d="M59.1964 138.704H54.7404V143.16H59.1964V138.704Z" fill="#E0E0E0"/>
<path d="M66.6364 138.704H62.1804V143.16H66.6364V138.704Z" fill="#E0E0E0"/>
<path d="M74.0842 138.704H69.6282V143.16H74.0842V138.704Z" fill="#EBEBEB"/>
<path d="M36.8604 145.624H32.4044V150.08H36.8604V145.624Z" fill="#E0E0E0"/>
<path d="M44.3002 145.624H39.8442V150.08H44.3002V145.624Z" fill="#E0E0E0"/>
<path d="M51.7482 145.624H47.2922V150.08H51.7482V145.624Z" fill="#E0E0E0"/>
<path d="M59.1964 145.624H54.7404V150.08H59.1964V145.624Z" fill="#E0E0E0"/>
<path d="M66.6364 145.624H62.1804V150.08H66.6364V145.624Z" fill="#E0E0E0"/>
<path d="M74.0842 145.624H69.6282V150.08H74.0842V145.624Z" fill="#EBEBEB"/>
<path d="M36.8604 152.536H32.4044V156.992H36.8604V152.536Z" fill="#E0E0E0"/>
<path d="M44.3002 152.536H39.8442V156.992H44.3002V152.536Z" fill="#E0E0E0"/>
<path d="M51.7482 152.536H47.2922V156.992H51.7482V152.536Z" fill="#E0E0E0"/>
<path d="M59.1964 152.536H54.7404V156.992H59.1964V152.536Z" fill="#E0E0E0"/>
<path d="M66.6364 152.536H62.1804V156.992H66.6364V152.536Z" fill="#E0E0E0"/>
<path d="M74.0842 152.536H69.6282V156.992H74.0842V152.536Z" fill="#EBEBEB"/>
<path d="M36.8604 159.448H32.4044V163.904H36.8604V159.448Z" fill="#E0E0E0"/>
<path d="M44.3002 159.448H39.8442V163.904H44.3002V159.448Z" fill="#E0E0E0"/>
<path d="M51.7482 159.448H47.2922V163.904H51.7482V159.448Z" fill="#E0E0E0"/>
<path d="M59.1964 159.448H54.7404V163.904H59.1964V159.448Z" fill="#E0E0E0"/>
<path d="M66.6364 159.448H62.1804V163.904H66.6364V159.448Z" fill="#E0E0E0"/>
<path d="M74.0842 159.448H69.6282V163.904H74.0842V159.448Z" fill="#EBEBEB"/>
<path d="M43.1519 256.65C55.246 255.741 64.313 245.199 63.4036 233.105C62.4942 221.011 51.9529 211.944 39.8589 212.854C27.7648 213.763 18.6979 224.304 19.6072 236.399C20.5166 248.493 31.0579 257.56 43.1519 256.65Z" fill="#E6E6E6"/>
<path opacity="0.3" d="M42.655 251.952C52.1549 251.313 59.3379 243.093 58.6986 233.593C58.0592 224.093 49.8398 216.91 40.3399 217.55C30.84 218.189 23.6571 226.408 24.2964 235.908C24.9357 245.408 33.1551 252.591 42.655 251.952Z" fill="white"/>
<path d="M46.4363 242.536C45.3883 243.4 43.9243 243.864 42.0443 243.928L41.8443 246.704L39.8123 246.56L40.0123 243.808C38.7963 243.64 37.6603 243.336 36.5963 242.888C35.5323 242.448 34.7003 241.92 34.0923 241.312L35.3883 238.888C35.9643 239.424 36.6763 239.896 37.5243 240.296C38.3723 240.696 39.2683 240.976 40.2043 241.12L40.5563 236.168C39.4043 235.8 38.4523 235.424 37.6923 235.032C36.9323 234.64 36.3083 234.096 35.8283 233.408C35.3483 232.72 35.1483 231.84 35.2203 230.768C35.3163 229.432 35.8843 228.328 36.9243 227.456C37.9643 226.584 39.4203 226.128 41.2763 226.08L41.4763 223.28L43.5083 223.424L43.3083 226.176C44.2283 226.288 45.1243 226.512 45.9883 226.84C46.8523 227.168 47.5963 227.568 48.2283 228.048L47.0363 230.472C45.8363 229.656 44.5323 229.112 43.1243 228.848L42.7643 233.848C43.9323 234.216 44.9003 234.592 45.6603 234.976C46.4203 235.36 47.0443 235.904 47.5323 236.592C48.0203 237.28 48.2283 238.168 48.1483 239.24C48.0523 240.576 47.4763 241.68 46.4283 242.536H46.4363ZM38.9803 232.208C39.3883 232.568 39.9883 232.896 40.7803 233.184L41.1003 228.776C40.2523 228.848 39.6043 229.064 39.1643 229.432C38.7243 229.8 38.4843 230.272 38.4363 230.848C38.3963 231.392 38.5803 231.848 38.9883 232.208H38.9803ZM44.2363 240.6C44.6843 240.248 44.9323 239.792 44.9723 239.232C45.0123 238.672 44.8203 238.208 44.4043 237.832C43.9803 237.464 43.3643 237.128 42.5563 236.84L42.2443 241.224C43.1323 241.152 43.7963 240.944 44.2443 240.6H44.2363Z" fill="#E6E6E6"/>
<path d="M306.222 35.4723C311.748 28.6739 310.718 18.6824 303.919 13.1556C297.121 7.6288 287.129 8.65957 281.603 15.4579C276.076 22.2562 277.107 32.2477 283.905 37.7745C290.703 43.3013 300.695 42.2706 306.222 35.4723Z" fill="#E6E6E6"/>
<path opacity="0.3" d="M306.052 28.1107C307.522 21.3903 303.266 14.7506 296.546 13.2804C289.826 11.8103 283.186 16.0663 281.716 22.7867C280.246 29.507 284.502 36.1467 291.222 37.6169C297.942 39.0871 304.582 34.831 306.052 28.1107Z" fill="white"/>
<path d="M297.452 31.0722C296.692 31.6962 295.636 32.0322 294.276 32.0722L294.132 34.0722L292.668 33.9682L292.812 31.9842C291.932 31.8642 291.108 31.6402 290.34 31.3202C289.572 31.0002 288.972 30.6242 288.532 30.1842L289.468 28.4322C289.884 28.8242 290.396 29.1602 291.012 29.4482C291.628 29.7362 292.268 29.9362 292.948 30.0482L293.204 26.4722C292.372 26.2082 291.684 25.9362 291.132 25.6482C290.58 25.3602 290.132 24.9682 289.788 24.4722C289.444 23.9762 289.292 23.3362 289.348 22.5602C289.42 21.5922 289.828 20.8002 290.58 20.1682C291.332 19.5362 292.38 19.2082 293.724 19.1682L293.868 17.1442L295.332 17.2482L295.188 19.2322C295.852 19.3122 296.5 19.4722 297.124 19.7122C297.748 19.9522 298.284 20.2402 298.74 20.5842L297.876 22.3362C297.004 21.7442 296.068 21.3522 295.044 21.1602L294.788 24.7762C295.628 25.0402 296.332 25.3122 296.876 25.5922C297.428 25.8722 297.876 26.2642 298.228 26.7602C298.58 27.2562 298.732 27.8962 298.676 28.6722C298.604 29.6402 298.196 30.4322 297.436 31.0562L297.452 31.0722ZM292.068 23.6082C292.364 23.8722 292.796 24.1042 293.364 24.3122L293.596 21.1282C292.98 21.1762 292.516 21.3362 292.196 21.6002C291.876 21.8642 291.7 22.2082 291.676 22.6242C291.644 23.0162 291.78 23.3442 292.076 23.6082H292.068ZM295.868 29.6722C296.188 29.4162 296.372 29.0882 296.396 28.6882C296.42 28.2882 296.284 27.9442 295.98 27.6802C295.676 27.4162 295.228 27.1762 294.644 26.9602L294.42 30.1282C295.06 30.0802 295.54 29.9282 295.86 29.6722H295.868Z" fill="#E6E6E6"/>
<path d="M72.9102 277.402C74.1495 270.438 69.5085 263.787 62.5442 262.548C55.58 261.309 48.9297 265.95 47.6904 272.914C46.4512 279.878 51.0922 286.529 58.0564 287.768C65.0207 289.007 71.671 284.366 72.9102 277.402Z" fill="#E6E6E6"/>
<path opacity="0.3" d="M63.4609 284.695C68.7311 282.943 71.583 277.251 69.8309 271.98C68.0788 266.71 62.3861 263.858 57.1159 265.61C51.8458 267.363 48.9939 273.055 50.746 278.325C52.4981 283.596 58.1908 286.447 63.4609 284.695Z" fill="white"/>
<path d="M63.1803 279.688C62.5643 280.192 61.7163 280.464 60.6203 280.496L60.5003 282.112L59.3163 282.024L59.4283 280.424C58.7163 280.328 58.0523 280.144 57.4363 279.888C56.8123 279.632 56.3323 279.328 55.9803 278.968L56.7323 277.552C57.0683 277.864 57.4843 278.144 57.9803 278.376C58.4763 278.608 58.9963 278.768 59.5403 278.856L59.7483 275.968C59.0763 275.752 58.5163 275.536 58.0763 275.304C57.6363 275.072 57.2683 274.76 56.9883 274.352C56.7083 273.952 56.5883 273.432 56.6363 272.808C56.6923 272.032 57.0203 271.384 57.6283 270.872C58.2363 270.36 59.0843 270.096 60.1723 270.064L60.2923 268.432L61.4763 268.52L61.3643 270.12C61.9003 270.184 62.4203 270.32 62.9243 270.504C63.4283 270.696 63.8603 270.928 64.2283 271.208L63.5323 272.624C62.8283 272.144 62.0683 271.832 61.2523 271.68L61.0443 274.6C61.7243 274.816 62.2923 275.032 62.7323 275.256C63.1723 275.48 63.5403 275.792 63.8283 276.2C64.1163 276.6 64.2363 277.12 64.1883 277.744C64.1323 278.528 63.7963 279.168 63.1883 279.672L63.1803 279.688ZM58.8283 273.664C59.0683 273.872 59.4123 274.064 59.8763 274.232L60.0603 271.664C59.5643 271.704 59.1883 271.832 58.9323 272.048C58.6763 272.264 58.5323 272.536 58.5083 272.872C58.4843 273.192 58.5963 273.456 58.8283 273.664ZM61.8923 278.56C62.1563 278.36 62.2923 278.088 62.3163 277.76C62.3403 277.432 62.2283 277.16 61.9803 276.944C61.7323 276.728 61.3723 276.536 60.9003 276.368L60.7163 278.928C61.2283 278.888 61.6203 278.768 61.8843 278.56H61.8923Z" fill="#E6E6E6"/>
<path d="M99.5239 71.0244C104.31 66.9064 104.851 59.6884 100.733 54.9024C96.6152 50.1165 89.3972 49.575 84.6112 53.6931C79.8253 57.8111 79.2839 65.0291 83.4019 69.815C87.5199 74.601 94.7379 75.1424 99.5239 71.0244Z" fill="#E6E6E6"/>
<path opacity="0.3" d="M101.021 63.0001C100.669 67.9441 96.3646 71.6641 91.4206 71.3121C86.4766 70.9601 82.7566 66.6561 83.1086 61.7121C83.4606 56.7681 87.7646 53.0481 92.7086 53.4001C97.6526 53.7521 101.373 58.0561 101.021 63.0001Z" fill="white"/>
<path d="M94.6285 66.408C94.0845 66.856 93.3165 67.096 92.3405 67.128L92.2365 68.576L91.1805 68.504L91.2845 67.072C90.6525 66.984 90.0605 66.824 89.5085 66.592C88.9565 66.36 88.5245 66.088 88.2045 65.776L88.8765 64.512C89.1725 64.792 89.5485 65.04 89.9885 65.248C90.4285 65.456 90.8925 65.6 91.3805 65.68L91.5645 63.104C90.9645 62.912 90.4685 62.72 90.0685 62.512C89.6765 62.304 89.3485 62.024 89.1005 61.664C88.8525 61.304 88.7485 60.848 88.7885 60.288C88.8365 59.592 89.1325 59.016 89.6765 58.56C90.2205 58.104 90.9725 57.864 91.9405 57.84L92.0445 56.384L93.1005 56.456L92.9965 57.888C93.4765 57.952 93.9405 58.064 94.3885 58.232C94.8365 58.4 95.2285 58.616 95.5565 58.864L94.9325 60.128C94.3085 59.704 93.6285 59.424 92.8925 59.28L92.7085 61.888C93.3165 62.08 93.8205 62.272 94.2125 62.472C94.6045 62.672 94.9325 62.952 95.1885 63.312C95.4445 63.672 95.5485 64.128 95.5085 64.688C95.4605 65.384 95.1565 65.96 94.6125 66.408H94.6285ZM90.7485 61.032C90.9565 61.224 91.2685 61.392 91.6845 61.536L91.8525 59.24C91.4125 59.28 91.0765 59.392 90.8445 59.584C90.6125 59.776 90.4925 60.024 90.4685 60.32C90.4445 60.6 90.5405 60.84 90.7565 61.024L90.7485 61.032ZM93.4845 65.4C93.7165 65.216 93.8445 64.984 93.8685 64.688C93.8925 64.392 93.7885 64.152 93.5725 63.96C93.3565 63.768 93.0365 63.592 92.6125 63.44L92.4525 65.72C92.9165 65.68 93.2605 65.576 93.4925 65.392L93.4845 65.4Z" fill="#E6E6E6"/>
<path d="M369.836 42.48H312.54V133.52H369.836V42.48Z" fill="#E0E0E0"/>
<path opacity="0.6" d="M365.524 46.7201H316.844V129.272H365.524V46.7201Z" fill="white"/>
<path d="M362.308 49.696H320.068V126.296H362.308V49.696Z" fill="white"/>
<path d="M353.164 59.744H329.772V115.368H353.164V59.744Z" fill="#E6E6E6"/>
<path opacity="0.6" d="M322.54 51.368C322.54 51.368 321.788 106.936 322.916 106.744C324.052 106.552 353.044 52.032 353.172 51.464L322.54 51.368Z" fill="white"/>
<path d="M380.068 206.752C379.356 203.328 378.004 200.144 376.14 197.312L379.524 193.232L372.3 186.008L368.22 189.384C365.388 187.528 362.204 186.168 358.78 185.456L358.284 180.192H348.06L347.564 185.456C344.14 186.168 340.956 187.528 338.124 189.384L334.044 186.008L326.82 193.232L330.196 197.312C328.34 200.144 326.98 203.328 326.268 206.752L321.004 207.248V217.464L326.268 217.96C326.98 221.384 328.34 224.568 330.196 227.4L326.82 231.48L334.044 238.704L338.124 235.32C340.956 237.176 344.14 238.536 347.564 239.248L348.06 244.512H358.284L358.78 239.248C362.204 238.536 365.388 237.176 368.22 235.32L372.3 238.704L379.524 231.48L376.14 227.4C377.996 224.568 379.356 221.384 380.068 217.96L385.332 217.464V207.248L380.068 206.752ZM367.004 212.36C367.004 220 360.812 226.192 353.172 226.192C345.532 226.192 339.34 220 339.34 212.36C339.34 204.72 345.532 198.528 353.172 198.528C360.812 198.528 367.004 204.72 367.004 212.36Z" fill="#EBEBEB"/>
<path d="M198.66 257C197.884 253.24 196.388 249.744 194.356 246.64L198.068 242.16L190.14 234.224L185.66 237.936C182.556 235.896 179.06 234.408 175.3 233.632L174.756 227.856H163.54L162.996 233.632C159.236 234.408 155.74 235.904 152.636 237.936L148.156 234.224L140.228 242.16L143.94 246.64C141.9 249.744 140.412 253.24 139.636 257L133.86 257.544V268.76L139.636 269.304C140.42 273.064 141.908 276.56 143.94 279.664L140.228 284.144L148.156 292.08L152.636 288.368C155.74 290.408 159.236 291.896 162.996 292.672L163.54 298.448H174.756L175.3 292.672C179.06 291.896 182.556 290.4 185.66 288.36L190.14 292.072L198.068 284.136L194.356 279.656C196.396 276.552 197.884 273.056 198.66 269.296L204.436 268.752V257.536L198.66 256.992V257ZM184.324 263.16C184.324 271.544 177.524 278.344 169.14 278.344C160.756 278.344 153.956 271.544 153.956 263.16C153.956 254.776 160.756 247.976 169.14 247.976C177.524 247.976 184.324 254.776 184.324 263.16Z" fill="#EBEBEB"/>
<path d="M372.068 345.072C372.068 351.008 295.108 355.824 200.172 355.824C105.236 355.824 28.2762 351.008 28.2762 345.072C28.2762 339.136 105.236 334.32 200.172 334.32C295.108 334.32 372.068 339.136 372.068 345.072Z" fill="#F5F5F5"/>
<path d="M137.34 32.7402C142.874 21.4786 138.231 7.86301 126.969 2.32893C115.708 -3.20515 102.092 1.43794 96.5582 12.6996C91.0241 23.9612 95.6672 37.5768 106.929 43.1109C118.19 48.6449 131.806 44.0019 137.34 32.7402Z" fill="#407BFF"/>
<path opacity="0.3" d="M128.884 35.9819C136.209 29.3917 136.804 18.1117 130.214 10.7874C123.623 3.46302 112.343 2.86792 105.019 9.45815C97.6947 16.0484 97.0996 27.3283 103.69 34.6527C110.28 41.977 121.56 42.5721 128.884 35.9819Z" fill="white"/>
<path d="M124.7 28.28C124.028 29.512 122.804 30.528 121.028 31.312L121.908 34.048L119.9 34.696L119.028 31.984C117.796 32.288 116.588 32.44 115.396 32.432C114.204 32.424 113.204 32.24 112.388 31.888L112.692 29.064C113.452 29.36 114.316 29.536 115.292 29.592C116.26 29.648 117.228 29.568 118.18 29.344L116.604 24.456C115.356 24.552 114.292 24.56 113.412 24.472C112.532 24.384 111.724 24.112 110.996 23.632C110.268 23.16 109.732 22.392 109.388 21.328C108.964 20.008 109.076 18.728 109.74 17.488C110.404 16.248 111.62 15.248 113.38 14.48L112.492 11.72L114.5 11.072L115.372 13.784C116.3 13.536 117.244 13.408 118.196 13.384C119.148 13.36 120.02 13.464 120.812 13.672L120.604 16.464C119.132 16.144 117.676 16.136 116.22 16.424L117.812 21.36C119.076 21.256 120.148 21.248 121.028 21.32C121.908 21.4 122.716 21.672 123.452 22.144C124.188 22.616 124.732 23.384 125.068 24.44C125.492 25.76 125.372 27.04 124.7 28.272V28.28ZM113.54 21.264C114.068 21.456 114.772 21.536 115.644 21.504L114.244 17.152C113.452 17.552 112.924 18.008 112.636 18.536C112.356 19.056 112.308 19.608 112.492 20.176C112.668 20.712 113.02 21.08 113.548 21.264H113.54ZM121.836 27.28C122.132 26.768 122.188 26.24 122.012 25.688C121.836 25.136 121.468 24.76 120.924 24.568C120.372 24.376 119.66 24.296 118.772 24.328L120.164 28.656C120.988 28.248 121.54 27.792 121.836 27.28Z" fill="#407BFF"/>
<path d="M182.09 51.8495C185.685 43.1712 181.564 33.2221 172.885 29.6275C164.207 26.0328 154.258 30.1539 150.663 38.8321C147.069 47.5104 151.19 57.4595 159.868 61.0542C168.546 64.6488 178.495 60.5277 182.09 51.8495Z" fill="#407BFF"/>
<path opacity="0.3" d="M176.379 54.1876C181.266 48.6597 180.747 40.2165 175.219 35.3293C169.691 30.4421 161.248 30.9614 156.361 36.4893C151.474 42.0172 151.993 50.4604 157.521 55.3476C163.049 60.2348 171.492 59.7154 176.379 54.1876Z" fill="white"/>
<path d="M167.868 52.3039C166.876 52.6479 165.684 52.5919 164.3 52.1359L163.412 54.0959L161.972 53.4479L162.852 51.5039C162.012 51.0559 161.268 50.5279 160.612 49.9199C159.956 49.3119 159.492 48.7119 159.212 48.1039L160.804 46.6879C161.076 47.2319 161.468 47.7679 161.98 48.2879C162.492 48.8079 163.068 49.2479 163.708 49.6079L165.292 46.1039C164.556 45.5279 163.956 44.9999 163.516 44.5119C163.068 44.0239 162.764 43.4639 162.596 42.8319C162.428 42.1999 162.524 41.5039 162.86 40.7439C163.284 39.7999 163.996 39.1439 164.988 38.7919C165.98 38.4399 167.156 38.4959 168.524 38.9519L169.42 36.9759L170.86 37.6239L169.98 39.5679C170.62 39.8959 171.204 40.2959 171.748 40.7679C172.292 41.2399 172.724 41.7279 173.052 42.2479L171.532 43.6959C170.876 42.7839 170.076 42.0399 169.124 41.4639L167.524 44.9999C168.276 45.5759 168.876 46.1119 169.324 46.5919C169.772 47.0799 170.084 47.6319 170.252 48.2719C170.42 48.9039 170.34 49.5999 169.996 50.3599C169.572 51.3039 168.86 51.9519 167.868 52.2959V52.3039ZM165.212 42.7999C165.412 43.1679 165.756 43.5679 166.26 43.9919L167.668 40.8719C167.028 40.6959 166.5 40.6799 166.084 40.8319C165.668 40.9839 165.364 41.2559 165.18 41.6639C165.004 42.0479 165.02 42.4239 165.212 42.7999ZM166.78 50.3119C167.196 50.1759 167.5 49.9119 167.676 49.5119C167.852 49.1119 167.844 48.7279 167.636 48.3439C167.428 47.9599 167.068 47.5599 166.564 47.1279L165.164 50.2319C165.828 50.4159 166.364 50.4479 166.788 50.3119H166.78Z" fill="#407BFF"/>
<path d="M150.684 35.0638C153.092 31.3198 156.908 28.6078 161.228 27.5358C161.604 27.4398 161.444 26.8638 161.068 26.9598C156.596 28.0638 152.66 30.8958 150.172 34.7678C149.964 35.0958 150.484 35.3918 150.692 35.0718L150.684 35.0638Z" fill="#407BFF"/>
<path d="M163.22 27.0159C163.94 26.8719 164.668 26.8399 165.396 26.8959C165.556 26.9119 165.692 26.7519 165.692 26.5919C165.692 26.4159 165.556 26.3039 165.396 26.2879C164.612 26.2239 163.828 26.2799 163.06 26.4319C162.9 26.4639 162.812 26.6559 162.852 26.7999C162.9 26.9679 163.06 27.0399 163.22 27.0079V27.0159Z" fill="#407BFF"/>
<path d="M347.157 103.928H269.869V345.08H347.157V103.928Z" fill="#407BFF"/>
<path opacity="0.3" d="M347.157 103.928H269.869V345.08H347.157V103.928Z" fill="black"/>
<path d="M341.188 103.984H275.876V345.072H341.188V103.984Z" fill="#407BFF"/>
<path opacity="0.6" d="M341.188 103.984H275.876V345.072H341.188V103.984Z" fill="white"/>
<path opacity="0.2" d="M341.189 224.496L276.189 283.392V308.288L341.189 249.664V224.496Z" fill="white"/>
<path opacity="0.2" d="M341.188 259.896L275.876 319.144V327.6L341.188 270.408V259.896Z" fill="white"/>
<path opacity="0.2" d="M341.188 140.088L275.876 199.336V207.8L341.188 150.6V140.088Z" fill="white"/>
<path opacity="0.3" d="M347.165 103.984H269.909V108.264H347.165V103.984Z" fill="black"/>
<path d="M275.013 162.512H341.013C341.397 162.512 341.397 161.912 341.013 161.912H275.013C274.629 161.912 274.629 162.512 275.013 162.512Z" fill="#407BFF"/>
<path d="M274.781 188.64H341.189C341.573 188.64 341.573 188.04 341.189 188.04H274.781C274.397 188.04 274.397 188.64 274.781 188.64Z" fill="#407BFF"/>
<path d="M275.116 214.76H341.188C341.572 214.76 341.572 214.16 341.188 214.16H275.116C274.732 214.16 274.732 214.76 275.116 214.76Z" fill="#407BFF"/>
<path d="M274.797 240.88H341.189C341.573 240.88 341.573 240.28 341.189 240.28H274.797C274.413 240.28 274.413 240.88 274.797 240.88Z" fill="#407BFF"/>
<path d="M274.797 267.008H341.189C341.573 267.008 341.573 266.408 341.189 266.408H274.797C274.413 266.408 274.413 267.008 274.797 267.008Z" fill="#407BFF"/>
<path d="M276.365 293.128H341.189C341.573 293.128 341.573 292.528 341.189 292.528H276.365C275.981 292.528 275.981 293.128 276.365 293.128Z" fill="#407BFF"/>
<path d="M276.365 319.256H341.189C341.573 319.256 341.573 318.656 341.189 318.656H276.365C275.981 318.656 275.981 319.256 276.365 319.256Z" fill="#407BFF"/>
<path d="M275.013 135.96H341.189C341.573 135.96 341.573 135.36 341.189 135.36H275.013C274.629 135.36 274.629 135.96 275.013 135.96Z" fill="#407BFF"/>
<path d="M296.477 103.272V344.776C296.477 345.16 297.077 345.16 297.077 344.776V103.272C297.077 102.888 296.477 102.888 296.477 103.272Z" fill="#407BFF"/>
<path d="M321.157 103.272V344.776C321.157 345.16 321.757 345.16 321.757 344.776V103.272C321.757 102.888 321.157 102.888 321.157 103.272Z" fill="#407BFF"/>
<path d="M349.444 97.7521H266.988V104.128H349.444V97.7521Z" fill="#263238"/>
<path opacity="0.3" d="M299.029 97.7521H284.261V345.072H299.029V97.7521Z" fill="black"/>
<path d="M288.037 38.784H210.749V345.072H288.037V38.784Z" fill="#407BFF"/>
<path opacity="0.3" d="M288.037 38.784H210.749V345.072H288.037V38.784Z" fill="black"/>
<path d="M282.06 38.856H216.748V345.072H282.06V38.856Z" fill="#407BFF"/>
<path opacity="0.6" d="M282.06 38.856H216.748V345.072H282.06V38.856Z" fill="white"/>
<path opacity="0.1" d="M216.748 264.736H230.404V228.736H250.324V190.848V120.944H269.548V167.656H282.068V345.072H216.748V264.736Z" fill="black"/>
<path opacity="0.2" d="M282.068 191.928L216.748 266.728V298.344L282.068 223.888V191.928Z" fill="white"/>
<path opacity="0.2" d="M282.068 236.88L216.748 312.136V322.88L282.068 250.24V236.88Z" fill="white"/>
<path opacity="0.2" d="M282.068 84.712L216.748 159.968V170.72L282.068 98.072V84.712Z" fill="white"/>
<path opacity="0.3" d="M288.044 38.856H210.788V44.296H288.044V38.856Z" fill="black"/>
<path d="M216.972 113.12H281.836C282.22 113.12 282.22 112.52 281.836 112.52H216.972C216.588 112.52 216.588 113.12 216.972 113.12Z" fill="#407BFF"/>
<path d="M216.748 146.296H281.972C282.356 146.296 282.356 145.696 281.972 145.696H216.748C216.364 145.696 216.364 146.296 216.748 146.296Z" fill="#407BFF"/>
<path d="M217.068 179.48H281.98C282.364 179.48 282.364 178.88 281.98 178.88H217.068C216.684 178.88 216.684 179.48 217.068 179.48Z" fill="#407BFF"/>
<path d="M216.764 212.656H281.972C282.356 212.656 282.356 212.056 281.972 212.056H216.764C216.38 212.056 216.38 212.656 216.764 212.656Z" fill="#407BFF"/>
<path d="M216.764 245.84H281.972C282.356 245.84 282.356 245.24 281.972 245.24H216.764C216.38 245.24 216.38 245.84 216.764 245.84Z" fill="#407BFF"/>
<path d="M217.068 279.016H281.98C282.364 279.016 282.364 278.416 281.98 278.416H217.068C216.684 278.416 216.684 279.016 217.068 279.016Z" fill="#407BFF"/>
<path d="M216.981 312.192H281.981C282.365 312.192 282.365 311.592 281.981 311.592H216.981C216.597 311.592 216.597 312.192 216.981 312.192Z" fill="#407BFF"/>
<path d="M216.972 79.3839H281.98C282.364 79.3839 282.364 78.7839 281.98 78.7839H216.972C216.588 78.7839 216.588 79.3839 216.972 79.3839Z" fill="#407BFF"/>
<path d="M237.356 37.9599V344.792C237.356 345.176 237.956 345.176 237.956 344.792V37.9599C237.956 37.5759 237.356 37.5759 237.356 37.9599Z" fill="#407BFF"/>
<path d="M262.028 37.9599V344.792C262.028 345.176 262.628 345.176 262.628 344.792V37.9599C262.628 37.5759 262.028 37.5759 262.028 37.9599Z" fill="#407BFF"/>
<path d="M290.324 30.944H207.868V39.04H290.324V30.944Z" fill="#263238"/>
<path d="M232.373 24.1281H216.749V33.8001H232.373V24.1281Z" fill="#263238"/>
<path d="M245.564 16.608H237.652V32.104H245.564V16.608Z" fill="#263238"/>
<path opacity="0.3" d="M210.788 66.512L210.748 260.24H247.332V66.512H210.788Z" fill="black"/>
<path opacity="0.3" d="M210.748 312.504H242.836V318.352C242.836 320.904 240.764 322.968 238.22 322.968H210.756V312.496L210.748 312.504Z" fill="black"/>
<path d="M242.292 267.04H164.02C162.213 267.04 160.748 268.505 160.748 270.312V314.104C160.748 315.911 162.213 317.376 164.02 317.376H242.292C244.099 317.376 245.564 315.911 245.564 314.104V270.312C245.564 268.505 244.099 267.04 242.292 267.04Z" fill="#407BFF"/>
<path opacity="0.6" d="M242.292 267.04H164.02C162.213 267.04 160.748 268.505 160.748 270.312V314.104C160.748 315.911 162.213 317.376 164.02 317.376H242.292C244.099 317.376 245.564 315.911 245.564 314.104V270.312C245.564 268.505 244.099 267.04 242.292 267.04Z" fill="white"/>
<path d="M173.716 295.208C177.26 291.96 180.588 288.456 184.012 285.072C183.892 285.088 183.772 285.104 183.652 285.12C186.916 286.728 190.18 288.336 193.444 289.936C193.556 289.992 193.716 289.992 193.804 289.888C196.996 286.136 200.18 282.384 203.372 278.632C203.212 278.608 203.06 278.592 202.9 278.568C205.756 282.68 208.612 286.8 211.468 290.912C211.876 291.496 212.284 292.088 212.692 292.672C212.78 292.8 212.956 292.872 213.1 292.776C216.284 290.696 219.468 288.624 222.652 286.544C222.972 286.336 222.676 285.816 222.348 286.024C219.164 288.104 215.98 290.176 212.796 292.256C212.932 292.288 213.068 292.328 213.204 292.36C210.348 288.248 207.492 284.128 204.636 280.016C204.228 279.432 203.82 278.84 203.412 278.256C203.308 278.112 203.076 278.04 202.94 278.192C199.748 281.944 196.564 285.696 193.372 289.448C193.492 289.432 193.612 289.416 193.732 289.4C190.468 287.792 187.204 286.184 183.94 284.584C183.82 284.528 183.676 284.536 183.58 284.632C180.156 288.008 176.828 291.512 173.284 294.768C172.996 295.032 173.428 295.456 173.708 295.192L173.716 295.208Z" fill="#263238"/>
<path d="M176.572 299.408H171.98V309.576H176.572V299.408Z" fill="#407BFF"/>
<path d="M186.02 292.688H181.428V309.576H186.02V292.688Z" fill="#407BFF"/>
<path d="M195.652 294.384H191.06V309.576H195.652V294.384Z" fill="#407BFF"/>
<path d="M205.452 284.864H200.86V309.576H205.452V284.864Z" fill="#407BFF"/>
<path d="M215.364 297.968H210.772V309.576H215.364V297.968Z" fill="#407BFF"/>
<path d="M176.74 293.84C176.74 295.2 175.636 296.304 174.276 296.304C172.916 296.304 171.812 295.2 171.812 293.84C171.812 292.48 172.916 291.376 174.276 291.376C175.636 291.376 176.74 292.48 176.74 293.84Z" fill="#407BFF"/>
<path d="M186.188 284.864C186.188 286.224 185.084 287.328 183.724 287.328C182.364 287.328 181.26 286.224 181.26 284.864C181.26 283.504 182.364 282.4 183.724 282.4C185.084 282.4 186.188 283.504 186.188 284.864Z" fill="#407BFF"/>
<path d="M193.588 291.376C194.949 291.376 196.052 290.273 196.052 288.912C196.052 287.551 194.949 286.448 193.588 286.448C192.227 286.448 191.124 287.551 191.124 288.912C191.124 290.273 192.227 291.376 193.588 291.376Z" fill="#407BFF"/>
<path d="M205.62 278.424C205.62 279.784 204.516 280.888 203.156 280.888C201.796 280.888 200.692 279.784 200.692 278.424C200.692 277.064 201.796 275.96 203.156 275.96C204.516 275.96 205.62 277.064 205.62 278.424Z" fill="#407BFF"/>
<path d="M215.412 292.528C215.412 293.888 214.308 294.992 212.948 294.992C211.588 294.992 210.484 293.888 210.484 292.528C210.484 291.168 211.588 290.064 212.948 290.064C214.308 290.064 215.412 291.168 215.412 292.528Z" fill="#407BFF"/>
<path d="M225.172 292.144H220.58V309.576H225.172V292.144Z" fill="#407BFF"/>
<path opacity="0.3" d="M186.02 292.688H181.428V309.576H186.02V292.688Z" fill="black"/>
<path opacity="0.3" d="M205.452 284.864H200.86V309.576H205.452V284.864Z" fill="black"/>
<path opacity="0.3" d="M225.172 292.144H220.58V309.576H225.172V292.144Z" fill="black"/>
<path d="M235.324 297.968H230.732V309.576H235.324V297.968Z" fill="#407BFF"/>
<path d="M222.348 286.56C225.42 288.264 228.492 289.976 231.564 291.68C232.004 291.92 232.444 292.168 232.876 292.408C233.212 292.592 233.516 292.08 233.18 291.888C230.108 290.184 227.036 288.472 223.964 286.768L222.652 286.04C222.316 285.856 222.012 286.368 222.348 286.56Z" fill="#263238"/>
<path d="M225.516 286.296C225.516 287.656 224.412 288.76 223.052 288.76C221.692 288.76 220.588 287.656 220.588 286.296C220.588 284.936 221.692 283.832 223.052 283.832C224.412 283.832 225.516 284.936 225.516 286.296Z" fill="#407BFF"/>
<path d="M235.492 292.144C235.492 293.504 234.388 294.608 233.028 294.608C231.668 294.608 230.564 293.504 230.564 292.144C230.564 290.784 231.668 289.68 233.028 289.68C234.388 289.68 235.492 290.784 235.492 292.144Z" fill="#407BFF"/>
<path opacity="0.8" d="M169.14 273.128C169.14 274.248 168.236 275.152 167.116 275.152C165.996 275.152 165.092 274.248 165.092 273.128C165.092 272.008 165.996 271.104 167.116 271.104C168.236 271.104 169.14 272.008 169.14 273.128Z" fill="white"/>
<path opacity="0.8" d="M174.66 273.128C174.66 274.248 173.756 275.152 172.636 275.152C171.516 275.152 170.612 274.248 170.612 273.128C170.612 272.008 171.516 271.104 172.636 271.104C173.756 271.104 174.66 272.008 174.66 273.128Z" fill="white"/>
<path opacity="0.8" d="M180.188 273.128C180.188 274.248 179.284 275.152 178.164 275.152C177.044 275.152 176.14 274.248 176.14 273.128C176.14 272.008 177.044 271.104 178.164 271.104C179.284 271.104 180.188 272.008 180.188 273.128Z" fill="white"/>
<path d="M240.868 62.0641H119.556V256.144H240.868V62.0641Z" fill="#407BFF"/>
<path opacity="0.4" d="M240.868 62.0641H119.556V256.144H240.868V62.0641Z" fill="white"/>
<path d="M238.572 58.728H119.508V252.92H238.572V58.728Z" fill="#407BFF"/>
<path opacity="0.8" d="M238.572 58.728H119.508V252.92H238.572V58.728Z" fill="white"/>
<path d="M236.388 57.328H119.508V249.16H236.388V57.328Z" fill="#407BFF"/>
<path opacity="0.8" d="M236.388 57.328H119.508V249.16H236.388V57.328Z" fill="white"/>
<path opacity="0.3" d="M179.812 67.224H127.444V93.44H179.812V67.224Z" fill="#407BFF"/>
<path d="M136.804 76.456H132.004V73.608H145.068V76.456H140.268V88.712H136.796V76.456H136.804Z" fill="#407BFF"/>
<path d="M156.052 85.472H149.092L147.764 88.712H144.212L150.892 73.6H154.316L161.02 88.712H157.38L156.052 85.472ZM154.956 82.816L152.58 77.032L150.204 82.816H154.956Z" fill="#407BFF"/>
<path d="M171.252 88.712L167.636 83.464L164.084 88.712H160.1L165.644 81.032L160.38 73.608H164.316L167.764 78.504L171.148 73.608H174.892L169.668 80.904L175.26 88.72H171.26L171.252 88.712Z" fill="#407BFF"/>
<path d="M228.116 72.208H182.428V75.712H228.116V72.208Z" fill="#407BFF"/>
<path d="M228.116 79.4561H182.428V82.9601H228.116V79.4561Z" fill="#407BFF"/>
<path d="M228.116 86.712H182.428V90.216H228.116V86.712Z" fill="#407BFF"/>
<path opacity="0.3" d="M228.836 96.824H127.444V105.512H228.836V96.824Z" fill="#407BFF"/>
<path opacity="0.3" d="M228.836 230.48H127.444V239.168H228.836V230.48Z" fill="#407BFF"/>
<path opacity="0.3" d="M228.836 174.096H127.124V182.784H228.836V174.096Z" fill="#407BFF"/>
<path d="M227.932 190.968H144.676V196.832H227.932V190.968Z" fill="#407BFF"/>
<path d="M227.932 203.12H144.676V208.984H227.932V203.12Z" fill="#407BFF"/>
<path d="M227.932 216.168H144.676V222.032H227.932V216.168Z" fill="#407BFF"/>
<path d="M228.836 166.832H128.988C128.628 166.832 127.956 166.696 127.62 166.832C127.58 166.848 127.5 166.832 127.452 166.832L127.748 167.136V112.128L127.452 112.432H227.3C227.66 112.432 228.332 112.568 228.668 112.432C228.708 112.416 228.788 112.432 228.836 112.432L228.54 112.128V167.136C228.54 167.52 229.14 167.52 229.14 167.136V112.128C229.14 111.968 229.004 111.824 228.844 111.824H131.588C130.3 111.824 128.908 111.672 127.628 111.824C127.572 111.824 127.516 111.824 127.46 111.824C127.3 111.824 127.164 111.96 127.164 112.128V167.136C127.164 167.296 127.3 167.44 127.46 167.44H224.716C226.004 167.44 227.396 167.592 228.676 167.44C228.732 167.44 228.788 167.44 228.844 167.44C229.228 167.44 229.228 166.84 228.844 166.84L228.836 166.832Z" fill="#263238"/>
<path d="M198.612 112.984V167.096C198.612 167.48 199.212 167.48 199.212 167.096V112.984C199.212 112.6 198.612 112.6 198.612 112.984Z" fill="#263238"/>
<path d="M128.196 122.816H228.108C228.492 122.816 228.492 122.216 228.108 122.216H128.196C127.812 122.216 127.812 122.816 128.196 122.816Z" fill="#263238"/>
<path d="M128.196 131.688H228.108C228.492 131.688 228.492 131.088 228.108 131.088H128.196C127.812 131.088 127.812 131.688 128.196 131.688Z" fill="#263238"/>
<path d="M128.196 140.56H228.108C228.492 140.56 228.492 139.96 228.108 139.96H128.196C127.812 139.96 127.812 140.56 128.196 140.56Z" fill="#263238"/>
<path d="M128.196 149.432H228.108C228.492 149.432 228.492 148.832 228.108 148.832H128.196C127.812 148.832 127.812 149.432 128.196 149.432Z" fill="#263238"/>
<path d="M128.196 158.304H228.108C228.492 158.304 228.492 157.704 228.108 157.704H128.196C127.812 157.704 127.812 158.304 128.196 158.304Z" fill="#263238"/>
<path d="M140.356 197.952H131.724L132.02 198.256V189.552L131.724 189.856H140.356L140.06 189.552V198.256C140.06 198.64 140.66 198.64 140.66 198.256V189.552C140.66 189.392 140.524 189.248 140.364 189.248H131.732C131.572 189.248 131.436 189.384 131.436 189.552V198.256C131.436 198.416 131.572 198.56 131.732 198.56H140.364C140.748 198.56 140.748 197.96 140.364 197.96L140.356 197.952Z" fill="#407BFF"/>
<path d="M140.356 210.584H131.724L132.02 210.888V202.184L131.724 202.488H140.356L140.06 202.184V210.888C140.06 211.272 140.66 211.272 140.66 210.888V202.184C140.66 202.024 140.524 201.88 140.364 201.88H131.732C131.572 201.88 131.436 202.016 131.436 202.184V210.888C131.436 211.048 131.572 211.192 131.732 211.192H140.364C140.748 211.192 140.748 210.592 140.364 210.592L140.356 210.584Z" fill="#407BFF"/>
<path d="M140.356 223.152H131.724L132.02 223.456V214.752L131.724 215.056H140.356L140.06 214.752V223.456C140.06 223.84 140.66 223.84 140.66 223.456V214.752C140.66 214.592 140.524 214.448 140.364 214.448H131.732C131.572 214.448 131.436 214.584 131.436 214.752V223.456C131.436 223.616 131.572 223.76 131.732 223.76H140.364C140.748 223.76 140.748 223.16 140.364 223.16L140.356 223.152Z" fill="#407BFF"/>
<path d="M134.884 62.888V66.592C134.884 67.04 134.908 67.496 134.876 67.936C134.772 69.224 133.708 70.568 132.292 70.224C130.82 69.864 130.58 68.312 130.564 67.032C130.548 65.728 130.54 64.424 130.532 63.112C130.532 61.728 130.524 60.336 130.532 58.952C130.54 57.68 130.452 56.36 131.148 55.232C131.876 54.048 133.204 53.4 134.572 53.784C136.06 54.2 136.748 55.6 136.796 57.056C136.804 57.44 137.404 57.44 137.396 57.056C137.324 54.608 135.276 52.392 132.684 53.24C129.58 54.256 129.924 57.928 129.924 60.512C129.924 62.312 129.932 64.104 129.956 65.904C129.972 67.272 129.804 68.752 130.732 69.88C132.484 72.024 135.308 70.336 135.484 67.936C135.604 66.272 135.492 64.56 135.492 62.888C135.492 62.504 134.892 62.504 134.892 62.888H134.884Z" fill="#263238"/>
<path d="M66.3644 70.968C58.7724 67.488 49.7884 70.824 46.3084 78.416C42.8284 86.008 46.1644 94.992 53.7564 98.472C59.6204 101.16 66.3004 99.776 70.6444 95.512L75.1804 95.816L73.7004 91.248C73.7404 91.168 73.7804 91.104 73.8124 91.024C77.2924 83.432 73.9564 74.448 66.3644 70.968Z" fill="#407BFF"/>
<path d="M59.4364 92.224L51.7484 86.504L53.7484 83.816L58.9004 87.656L65.9804 79.208L68.5484 81.352L59.4364 92.224Z" fill="white"/>
<path d="M112.412 123.752C112.412 123.752 117.164 125.464 121.06 132.096C124.964 138.728 134.052 158.472 135.62 157.088C137.18 155.704 152.468 150.856 152.468 150.856L154.516 158.32C154.516 158.32 140.796 172.28 133.46 171.696C126.132 171.112 118.716 161.552 118.716 161.552L112.404 123.752H112.412Z" fill="#407BFF"/>
<path d="M127.876 167.384C127.012 167.08 126.548 166.08 126.836 165.152L134.38 137.136C134.812 135.816 135.972 134.928 137.276 134.92L157.38 135.384C157.596 135.368 157.82 135.392 158.028 135.464C158.892 135.768 159.356 136.768 159.068 137.696L151.516 165.712C151.084 167.032 149.924 167.92 148.62 167.928L128.516 167.464C128.3 167.48 128.084 167.456 127.876 167.384Z" fill="#263238"/>
<path d="M155.613 148.688C155.149 148.648 153.189 149.624 152.269 148.976C151.349 148.328 152.213 147.8 152.213 147.8C153.909 147.384 155.765 145.272 156.789 145.88C157.821 146.488 159.517 147.248 159.269 148.208C158.989 149.096 158.645 149.968 158.253 150.816C158.525 151.248 158.557 151.776 158.349 152.24C158.141 152.768 157.669 153.16 157.109 153.272C157.429 153.6 157.597 154.048 157.573 154.504C157.493 155.232 155.573 156.2 155.573 156.2C155.573 156.2 155.949 157.344 155.509 157.784C154.757 158.4 153.757 158.632 152.813 158.4C151.685 158.128 150.917 157.744 150.997 156.608C151.077 155.472 153.101 155.472 153.101 155.472C153.101 155.472 149.293 154.32 150.101 153.6C150.909 152.88 153.949 152.968 153.949 152.968C153.949 152.968 148.797 151.952 149.613 150.888C150.429 149.832 155.565 150.12 155.565 150.12C155.565 150.12 156.085 148.736 155.621 148.696L155.613 148.688Z" fill="#FDBBB5"/>
<g opacity="0.3">
<path d="M128.796 166.656C130.66 159.76 132.54 152.872 134.444 145.992C134.964 144.112 135.492 142.224 136.028 140.344C136.3 139.392 136.5 138.36 136.892 137.448C136.94 137.336 136.724 137.512 136.844 137.504C137.02 137.488 137.188 137.472 137.364 137.464C138.036 137.432 138.716 137.432 139.396 137.432C141.532 137.432 143.668 137.48 145.804 137.528C149.58 137.616 153.348 137.728 157.116 137.864C157.5 137.88 157.5 137.28 157.116 137.264C153.812 137.152 150.508 137.048 147.204 136.968C144.9 136.912 142.596 136.856 140.292 136.84C139.484 136.84 138.676 136.832 137.86 136.848C137.516 136.856 136.956 136.784 136.636 136.936C136.124 137.176 136.028 138.184 135.884 138.672C135.404 140.312 134.948 141.952 134.484 143.6C133.204 148.192 131.948 152.792 130.692 157.392C129.868 160.424 129.036 163.464 128.22 166.496C128.116 166.872 128.7 167.032 128.796 166.656Z" fill="black"/>
</g>
<path opacity="0.3" d="M148.476 140.184C148.116 139.688 147.388 139.6 146.852 139.992C146.316 140.384 146.164 141.104 146.524 141.6C146.884 142.096 147.612 142.184 148.148 141.792C148.692 141.4 148.836 140.68 148.476 140.184Z" fill="black"/>
<path d="M82.2761 121.568C82.2041 121.416 80.6441 115.24 81.0201 104.696C81.2681 97.768 82.4041 89.056 86.0841 86.104C98.3081 76.328 105.428 82.12 107.308 84.248C108.636 85.76 111.148 89.592 111.804 92.824C115.044 108.84 118.068 115.512 116.532 118.224C115.004 120.928 82.2681 121.568 82.2681 121.568H82.2761Z" fill="#263238"/>
<path d="M104.3 105.784C102.964 110.688 102.468 120.456 105.668 123.752C105.668 123.752 101.116 126.176 92.124 129.448C89.444 128.76 89.228 123.072 89.228 123.072C94.844 121.76 94.348 114.472 93.676 110.64L104.308 105.792L104.3 105.784Z" fill="#FDBBB5"/>
<path opacity="0.2" d="M96.972 110.416L103.404 114.584C103.332 115.496 103.34 116.384 103.428 117.296C101.324 117.208 97.924 115.224 97.324 113.064C97.052 112.208 96.932 111.312 96.972 110.416Z" fill="black"/>
<path d="M87.7 96.88C89.204 104.848 89.668 108.256 94.2439 112.08C101.1 117.8 110.508 114.792 111.428 106.664C112.252 99.368 109.66 87.528 101.436 84.888C96.028 82.928 90.052 85.728 88.092 91.136C87.428 92.976 87.292 94.968 87.7 96.88Z" fill="#FDBBB5"/>
<path d="M87.5079 105.344C88.7479 106.808 90.4519 107.568 91.9079 107.68C94.0919 107.848 94.5319 104.304 93.4279 102.328C92.4279 100.552 90.1399 99.648 88.1879 100.408C86.2599 101.152 86.0919 103.672 87.5079 105.344Z" fill="#FDBBB5"/>
<g opacity="0.2">
<path d="M92.3559 104.04C92.1399 103.248 91.6359 102.552 90.9479 102.104C90.2119 101.624 89.2919 101.48 88.4439 101.672C88.0679 101.76 88.2279 102.336 88.6039 102.248C90.0039 101.928 91.4119 102.816 91.7799 104.192C91.8839 104.568 92.4599 104.408 92.3559 104.032V104.04Z" fill="black"/>
</g>
<path d="M99.4361 95.192C99.5401 95.216 99.6441 95.192 99.7241 95.136C101.052 94.136 102.396 94.688 102.412 94.696C102.612 94.776 102.828 94.688 102.892 94.48C102.956 94.272 102.852 94.04 102.652 93.952C102.58 93.92 100.9 93.224 99.2441 94.464C99.0761 94.592 99.0521 94.84 99.1881 95.024C99.2521 95.112 99.3401 95.168 99.4361 95.192Z" fill="#263238"/>
<path d="M109.644 92.584C109.708 92.528 109.74 92.44 109.732 92.352C109.716 92.16 109.532 91.984 109.324 91.968C107.212 91.816 106.332 93.088 106.292 93.144C106.188 93.296 106.252 93.52 106.436 93.64C106.62 93.76 106.852 93.728 106.956 93.576C106.988 93.528 107.692 92.544 109.372 92.672C109.484 92.672 109.572 92.648 109.644 92.584Z" fill="#263238"/>
<path d="M105.396 98.168C105.396 98.168 107.188 100.912 108.932 102.52C109.236 102.8 109.172 103.296 108.82 103.504C107.916 104.032 106.716 103.896 106.716 103.896L105.396 98.168Z" fill="#A24E3F"/>
<path d="M100.236 89.9121C96.876 113.36 93.756 106.296 94.068 115.24C90.644 110.032 88.004 104.744 87.068 98.4881C86.468 95.3761 86.956 92.7601 87.804 89.7041C88.844 86.7041 92.028 83.8641 95.052 83.6081C96.148 83.4721 101.436 84.3761 102.292 85.0721C103.164 85.7361 100.772 88.9361 100.228 89.9121H100.236Z" fill="#263238"/>
<path d="M106.244 105.784C105.22 105.672 104.332 105.192 103.26 104.752C102.836 104.576 102.356 104.864 102.308 105.32C102.212 106.184 102.332 107.44 103.676 107.808C105.86 108.392 106.244 105.784 106.244 105.784Z" fill="white"/>
<path d="M100.068 99.784C100.244 100.6 100.804 101.208 101.324 101.128C101.844 101.056 102.124 100.328 101.948 99.512C101.772 98.696 101.212 98.088 100.692 98.168C100.172 98.24 99.8918 98.968 100.068 99.784Z" fill="#263238"/>
<path d="M107.204 98.16C107.372 98.952 107.932 99.536 108.452 99.456C108.972 99.384 109.252 98.68 109.076 97.888C108.908 97.096 108.348 96.512 107.828 96.592C107.308 96.664 107.028 97.368 107.204 98.16Z" fill="#263238"/>
<path d="M100.284 98.184L102.02 97.464C102.02 97.464 101.252 98.96 100.284 98.184Z" fill="#263238"/>
<path d="M107.572 96.704L109.308 95.984C109.308 95.984 108.54 97.48 107.572 96.704Z" fill="#263238"/>
<g opacity="0.2">
<path d="M97.74 82.44C96.828 85.864 95.012 88.928 92.764 91.656C90.596 94.288 87.972 96.424 85.668 98.92C83.796 100.952 82.508 103.24 82.636 106.064C82.748 108.512 83.62 110.896 84.708 113.072C85.7 115.056 86.908 117.088 88.46 118.696C88.732 118.976 89.156 118.552 88.884 118.272C87.596 116.936 86.572 115.288 85.692 113.664C84.468 111.408 83.428 108.904 83.252 106.312C83.036 103.168 84.6439 100.784 86.7879 98.624C89.0679 96.336 91.476 94.224 93.5 91.688C95.668 88.984 97.42 85.968 98.308 82.6C98.404 82.224 97.828 82.064 97.732 82.44H97.74Z" fill="white"/>
</g>
<path d="M123.956 324.688H123.996L125.284 262.368L120.78 185.632L93.4521 192.928C90.7721 207.816 101.236 218.752 101.236 218.752C100.652 228.944 103.164 242.056 105.572 251.816C107.556 259.896 108.98 262.128 109.476 265.696C110.036 269.72 108.812 275.72 109.116 280.88C110.212 295.68 112.572 310.352 116.148 324.744L116.604 327.256L118.772 336.488L124.556 336.728L124.092 327.512L123.948 324.688H123.956Z" fill="#FDBBB5"/>
<path opacity="0.2" d="M107.268 257.936L107.964 260.072L125.092 259.216L124.94 256.528L107.268 257.936Z" fill="black"/>
<path d="M133.236 347.792C132.308 347.088 131.252 346.568 130.124 346.256C130.124 346.256 126.7 343.112 124.7 333.304L120.364 332.352C118.844 332.04 117.3 332.72 116.492 334.04C116.372 334.216 116.284 334.416 116.244 334.624C116.06 335.672 115.948 336.728 115.908 337.792C115.812 341.408 115.932 345.032 116.268 348.64H117.052V341.832C117.052 339.512 118.964 342.16 119.556 344.616C120.156 347.08 121.348 349.688 126.42 349.616C132.34 349.496 134.796 349.128 133.244 347.792H133.236Z" fill="#263238"/>
<path d="M123.836 329.8C123.836 329.8 124.924 334.28 126.588 339.216C127.3 341.768 128.5 344.16 130.124 346.256C130.124 346.256 126.364 347.08 124.612 344.584C122.868 342.088 120.276 333.48 116.468 334.088C116.756 333.432 117.116 332.816 117.556 332.248C118.164 331.328 123.836 329.808 123.836 329.808V329.8Z" fill="#FDBBB5"/>
<path d="M79.7402 188.752C72.9322 202.264 79.8362 215.736 79.8362 215.736C76.3082 225.32 74.9802 238.6 74.4922 248.64C74.1002 256.96 74.8202 259.496 74.2762 263.064C73.6602 267.12 70.7722 272.52 69.5882 277.552C66.4362 291.96 64.5162 306.608 63.8282 321.336L63.5242 324.12L62.9722 333.584L68.4522 335.464L70.6282 326.504L71.2922 323.744L71.3642 323.76L90.3562 264.408L107.956 189.584L79.7402 188.76V188.752Z" fill="#FDBBB5"/>
<path opacity="0.2" d="M74.468 258.616V261.12L91.164 261L91.724 258.616H74.468Z" fill="black"/>
<path d="M73.604 348.536C72.908 347.6 72.052 346.8 71.068 346.176C71.068 346.176 68.668 342.184 69.596 332.232L65.684 330.064C64.316 329.336 62.644 329.544 61.484 330.576C61.324 330.712 61.188 330.88 61.084 331.064C60.612 332.016 60.204 333.008 59.86 334.016C58.732 337.456 57.812 340.952 57.108 344.504L57.86 344.72L59.844 338.216C60.492 335.992 61.58 339.072 61.46 341.6C61.34 344.128 61.724 347.024 66.604 348.36C72.276 349.944 74.716 350.32 73.62 348.552L73.604 348.536Z" fill="#263238"/>
<path d="M69.724 328.616C69.724 328.616 69.5 333.216 69.724 338.432C69.692 341.08 70.156 343.704 71.108 346.176C71.108 346.176 67.26 345.896 66.3 343.008C65.348 340.12 65.324 331.136 61.484 330.616C61.932 330.072 62.444 329.584 63.004 329.152C63.86 328.456 69.716 328.624 69.716 328.624L69.724 328.616Z" fill="#FDBBB5"/>
<path d="M126.636 231.8L127.884 256.256C127.884 256.256 103.268 258.616 91.7163 258.616H71.1083C71.1083 258.616 70.8283 210.448 75.5403 193.84C79.8683 178.576 85.1723 174.672 85.1723 174.672C85.1723 174.672 119.516 174.08 119.516 176.192C124.02 187.72 126.252 210.52 126.636 231.8Z" fill="#407BFF"/>
<path opacity="0.3" d="M126.636 231.8L127.884 256.256C127.884 256.256 103.268 258.616 91.7163 258.616H71.1083C71.1083 258.616 70.8283 210.448 75.5403 193.84C79.8683 178.576 85.1723 174.672 85.1723 174.672C85.1723 174.672 119.516 174.08 119.516 176.192C124.02 187.72 126.252 210.52 126.636 231.8Z" fill="black"/>
<path d="M111.972 213.728C107.356 223.328 102.74 232.92 98.1242 242.52C97.9562 242.864 98.4762 243.168 98.6442 242.824C103.26 233.224 107.876 223.632 112.492 214.032C112.66 213.688 112.14 213.384 111.972 213.728Z" fill="#263238"/>
<path opacity="0.2" d="M73.0841 208.736L92.6041 210.472C92.6041 210.472 95.3641 179.96 95.5961 172.832C95.8281 165.704 95.5961 153.024 95.5961 153.024L73.3161 206.672L73.0921 208.736H73.0841Z" fill="black"/>
<path d="M119.852 144.776C119.852 142.072 119.204 139.4 117.948 137.008L111.052 123.936C109.324 123.72 107.492 123.512 105.796 123.36C100.476 123 94.0842 123.056 88.7642 123.416C86.0042 123.76 83.1082 124.768 80.1242 126.168C79.7482 126.496 77.1562 129.616 78.4202 133.704C84.7322 154.68 85.8922 165.336 85.1882 174.664C96.8362 176.168 115.492 179 119.1 176.896C114.34 158.184 119.844 152.752 119.868 144.776H119.852Z" fill="#407BFF"/>
<path opacity="0.8" d="M119.852 144.776C119.852 142.072 119.204 139.4 117.948 137.008L111.052 123.936C109.324 123.72 107.492 123.512 105.796 123.36C100.476 123 94.0842 123.056 88.7642 123.416C86.0042 123.76 83.1082 124.768 80.1242 126.168C79.7482 126.496 77.1562 129.616 78.4202 133.704C84.7322 154.68 85.8922 165.336 85.1882 174.664C96.8362 176.168 115.492 179 119.1 176.896C114.34 158.184 119.844 152.752 119.868 144.776H119.852Z" fill="white"/>
<path d="M93.0682 119.104L89.3002 122.464L81.0122 124.992L78.8682 145.336C80.8922 152.952 82.3722 165.112 82.4202 165.28L67.8522 206.104L90.8522 208.504C90.8522 208.504 97.1562 182.384 97.7002 164.624C98.0922 151.848 96.4522 124.6 93.0762 119.096L93.0682 119.104Z" fill="#407BFF"/>
<path d="M101.108 164.072C103.708 164.28 103.804 160.36 105.156 160.2C105.948 160.128 106.716 159.928 107.444 159.616C107.444 159.616 106.308 160.664 107.444 161.784C108.068 162.4 111.052 161.456 111.732 159.216C112.412 156.968 109.956 152.168 109.404 151.504C108.844 150.832 105.916 151.04 105.916 151.04C105.916 151.04 111.124 151 112.86 150.76C114.588 150.52 115.22 148.896 113.068 148.944C112.06 148.968 101.62 148.44 100.772 149.248C99.9242 150.056 96.7802 157.968 96.7802 157.968C95.7482 158.56 94.3482 167.336 96.6282 167.704C96.9242 167.752 100.828 164.208 101.116 164.072H101.108Z" fill="#FDBBB5"/>
<path d="M108.948 150.864C107.372 150.504 105.756 150.464 104.164 150.736C103.788 150.8 103.948 151.376 104.324 151.312C105.804 151.056 107.324 151.104 108.788 151.44C109.164 151.528 109.324 150.944 108.948 150.864Z" fill="#A24E3F"/>
<path d="M110.212 153.096C108.772 152.808 107.3 152.8 105.844 153.056C105.468 153.12 105.628 153.704 106.004 153.632C107.34 153.392 108.716 153.408 110.052 153.672C110.428 153.744 110.588 153.168 110.212 153.096Z" fill="#A24E3F"/>
<path d="M111.252 155.776C109.724 155.432 108.092 155.12 106.628 155.856C106.284 156.032 106.588 156.552 106.932 156.376C108.236 155.72 109.74 156.048 111.092 156.352C111.468 156.44 111.628 155.856 111.252 155.776Z" fill="#A24E3F"/>
<path d="M107.46 159.968C108.308 159.6 108.964 158.8 109.18 157.896C109.22 157.744 109.132 157.56 108.972 157.528C108.82 157.496 108.644 157.576 108.604 157.736C108.58 157.84 108.548 157.936 108.516 158.032C108.508 158.056 108.5 158.088 108.484 158.112C108.468 158.16 108.484 158.104 108.484 158.128C108.46 158.176 108.444 158.224 108.42 158.264C108.372 158.352 108.324 158.448 108.268 158.528C108.236 158.568 108.212 158.616 108.18 158.656C108.172 158.672 108.14 158.704 108.164 158.672C108.148 158.696 108.132 158.712 108.108 158.736C108.044 158.816 107.972 158.888 107.9 158.96C107.868 158.992 107.828 159.024 107.796 159.056C107.772 159.072 107.756 159.096 107.732 159.112C107.684 159.152 107.756 159.096 107.7 159.136C107.532 159.256 107.356 159.36 107.164 159.448C107.02 159.512 106.972 159.736 107.06 159.856C107.156 160.008 107.316 160.032 107.468 159.96L107.46 159.968Z" fill="#A24E3F"/>
<path d="M109.484 158.584C109.38 158.6 109.268 158.6 109.164 158.584C109.188 158.584 109.22 158.584 109.244 158.592C109.132 158.576 109.02 158.544 108.916 158.504C108.94 158.512 108.964 158.528 108.988 158.536C108.94 158.52 108.9 158.496 108.852 158.472C108.716 158.392 108.516 158.432 108.444 158.576C108.372 158.72 108.404 158.904 108.548 158.984C108.828 159.144 109.156 159.216 109.476 159.176C109.556 159.168 109.628 159.152 109.692 159.088C109.74 159.04 109.78 158.952 109.78 158.872C109.78 158.792 109.748 158.712 109.692 158.656C109.636 158.608 109.556 158.56 109.476 158.568L109.484 158.584Z" fill="#A24E3F"/>
<path d="M82.1002 124.776C82.1002 124.776 74.5722 125.408 72.1962 136.232C70.0682 145.936 63.5242 170.288 67.4122 174.608C71.3002 178.928 100.74 167.424 100.74 167.424L96.5162 156.192L80.5802 159.4L84.9162 139.696L82.1002 124.792V124.776Z" fill="#407BFF"/>
<g opacity="0.3">
<path d="M74.1963 161.312C76.9723 160.576 79.7563 159.888 82.5483 159.224C87.1483 158.136 91.8043 157.024 96.5083 156.488C96.4123 156.416 96.3163 156.344 96.2203 156.264C97.5083 159.96 98.7963 163.656 100.084 167.352C100.156 167.232 100.22 167.104 100.292 166.984C93.2683 169.408 86.2123 171.888 79.0363 173.84C78.6603 173.944 78.8203 174.52 79.1963 174.416C86.3723 172.464 93.4203 169.984 100.452 167.56C100.596 167.512 100.716 167.352 100.66 167.192C99.3723 163.496 98.0843 159.8 96.7963 156.104C96.7563 155.992 96.6443 155.872 96.5083 155.88C91.8283 156.416 87.2043 157.504 82.6283 158.584C79.7563 159.264 76.8923 159.968 74.0363 160.728C73.6603 160.824 73.8203 161.408 74.1963 161.304V161.312Z" fill="black"/>
</g>
<g opacity="0.3">
<path d="M79.1001 126.888C80.6681 126.472 81.9081 128.128 82.6841 129.24C83.4681 130.368 84.1081 131.6 84.5801 132.896C85.5241 135.488 85.8201 138.288 85.3881 141.016C85.3321 141.392 85.9081 141.56 85.9641 141.176C86.4441 138.08 86.0761 134.904 84.8681 132.008C84.2681 130.584 83.4841 129.24 82.5161 128.032C81.6441 126.952 80.3961 125.912 78.9241 126.304C78.5481 126.4 78.7081 126.984 79.0841 126.88L79.1001 126.888Z" fill="black"/>
</g>
<g opacity="0.3">
<path d="M81.1161 158.912C82.0921 155.96 82.8521 152.936 83.6281 149.928C83.9641 148.616 84.3001 147.304 84.6521 145.992C84.7641 145.576 84.8761 145.168 85.0041 144.76C85.0441 144.64 85.1241 144.488 85.1321 144.368C85.1481 144.192 85.2921 144.248 85.0601 144.312C85.4281 144.208 85.2761 143.624 84.9001 143.736C84.4601 143.864 84.3241 144.904 84.2281 145.256C83.8681 146.544 83.5401 147.848 83.2041 149.144C82.3801 152.36 81.5801 155.6 80.5321 158.76C80.4121 159.128 80.9881 159.288 81.1081 158.92L81.1161 158.912Z" fill="black"/>
</g>
<path d="M103.86 120.224C102.932 121.888 114.46 135 117.588 144.56C119.732 151.104 115.124 165.912 116.204 175.32C117.156 183.616 120.588 193.824 125.356 208.744L128.508 208.296L119.828 175.28C118.684 174.168 123.02 149.592 122.772 144.176C122.492 137.864 112.412 123.752 112.412 123.752L108.196 122.56L103.868 120.224H103.86Z" fill="#407BFF"/>
<g opacity="0.3">
<path d="M120.9 164.2C121.804 161.072 122.708 157.912 123.036 154.664C123.356 151.464 123.1 148.216 122.5 145.064C121.3 138.704 118.116 133.16 114.1 128.16C113.86 127.856 113.436 128.288 113.676 128.584C117.628 133.504 120.74 138.968 121.924 145.224C122.5 148.272 122.74 151.416 122.452 154.512C122.148 157.76 121.22 160.912 120.324 164.04C120.22 164.408 120.796 164.568 120.9 164.2Z" fill="black"/>
</g>
</g>
<defs>
<clipPath id="clip0_264_6984">
<rect width="400" height="355.832" fill="white" transform="translate(0.172363)"/>
</clipPath>
</defs>
</svg>
