<svg width="401" height="360" viewBox="0 0 401 360" fill="none" xmlns="http://www.w3.org/2000/svg">
<g clip-path="url(#clip0_264_6654)">
<path d="M355.653 260.216H211.053C208.469 260.216 206.365 257.728 206.365 254.672V5.544C206.365 2.488 208.469 0 211.053 0H355.653C358.237 0 360.341 2.488 360.341 5.544V254.664C360.341 257.72 358.237 260.208 355.653 260.208V260.216ZM211.053 0.24C208.581 0.24 206.565 2.624 206.565 5.552V254.672C206.565 257.6 208.581 259.984 211.053 259.984H355.653C358.125 259.984 360.141 257.6 360.141 254.672V5.544C360.141 2.616 358.125 0.232 355.653 0.232H211.053V0.24Z" fill="#E0E0E0"/>
<path d="M188.909 260.216H44.3172C41.7332 260.216 39.6292 257.728 39.6292 254.672V5.544C39.6292 2.488 41.7332 0 44.3172 0H188.917C191.501 0 193.605 2.488 193.605 5.544V254.664C193.605 257.72 191.501 260.208 188.917 260.208L188.909 260.216ZM44.3172 0.24C41.8452 0.24 39.8292 2.624 39.8292 5.552V254.672C39.8292 257.6 41.8452 259.984 44.3172 259.984H188.917C191.389 259.984 193.405 257.6 193.405 254.672V5.544C193.405 2.616 191.389 0.232 188.917 0.232H44.3172V0.24Z" fill="#E0E0E0"/>
<path d="M400.517 305.384H0.517212V305.584H400.517V305.384Z" fill="#E0E0E0"/>
<path d="M54.7012 316.8H41.8531V317H54.7012V316.8Z" fill="#E0E0E0"/>
<path d="M179.621 314.632H136.797V314.832H179.621V314.632Z" fill="#E0E0E0"/>
<path d="M84.5012 324.232H55.5012V324.432H84.5012V324.232Z" fill="#E0E0E0"/>
<path d="M337.749 314.528H303.197V314.728H337.749V314.528Z" fill="#E0E0E0"/>
<path d="M349.941 314.528H344.877V314.728H349.941V314.528Z" fill="#E0E0E0"/>
<path d="M296.597 319.512H253.485V319.712H296.597V319.512Z" fill="#E0E0E0"/>
<path d="M130.173 4.49603C138.253 0.840027 147.765 4.41603 151.421 12.496C155.077 20.576 151.501 30.088 143.421 33.744C135.341 37.4 125.829 33.824 122.173 25.744C118.517 17.664 122.093 8.15203 130.173 4.49603Z" fill="#EBEBEB"/>
<path d="M138.213 20.1919L139.389 23.6559C140.741 22.9599 141.117 22.0879 140.837 21.2479C140.509 20.2879 139.501 20.1279 138.213 20.1919Z" fill="#F5F5F5"/>
<path d="M133.117 16.936C133.437 17.872 134.429 18.016 135.669 17.968L134.485 14.488C133.173 15.176 132.821 16.08 133.117 16.944V16.936Z" fill="#F5F5F5"/>
<path d="M132.413 6.12805C125.253 8.55205 121.413 16.328 123.845 23.488C126.269 30.648 134.045 34.488 141.205 32.056C148.365 29.632 152.205 21.856 149.773 14.696C147.349 7.53605 139.573 3.69605 132.413 6.12805ZM140.109 25.792L140.853 27.984L139.245 28.528L138.509 26.36C136.557 26.888 134.485 26.896 133.165 26.36L133.381 24.088C134.805 24.56 136.333 24.616 137.797 24.248L136.469 20.344C134.125 20.544 131.557 20.632 130.637 17.92C129.965 15.928 130.829 13.728 133.765 12.368L133.013 10.16L134.621 9.61605L135.357 11.792C136.781 11.376 138.285 11.32 139.733 11.64L139.597 13.888C138.437 13.648 137.237 13.656 136.069 13.904L137.405 17.856C139.757 17.648 142.365 17.552 143.277 20.248C143.949 22.232 143.069 24.456 140.109 25.84V25.816V25.792Z" fill="#F5F5F5"/>
<path d="M366.405 149.928C374.173 152.624 378.277 161.112 375.581 168.872C372.885 176.64 364.397 180.744 356.637 178.048C348.869 175.352 344.765 166.864 347.461 159.104C350.157 151.336 358.645 147.232 366.405 149.928Z" fill="#EBEBEB"/>
<path d="M361.781 165.616L360.357 168.696C361.709 169.088 362.525 168.744 362.869 168C363.261 167.152 362.685 166.4 361.781 165.616Z" fill="#F5F5F5"/>
<path d="M360.445 160.168C360.061 161 360.637 161.728 361.501 162.488L362.933 159.392C361.613 159.016 360.797 159.392 360.445 160.168Z" fill="#F5F5F5"/>
<path d="M366.869 152.456C360.509 149.512 352.965 152.288 350.021 158.648C347.077 165.008 349.853 172.552 356.213 175.496C362.573 178.44 370.117 175.664 373.061 169.304C376.005 162.944 373.229 155.4 366.869 152.456ZM359.485 170.584L358.581 172.528L357.157 171.872L358.045 169.944C356.389 169.056 354.997 167.736 354.453 166.536L356.045 165.144C356.701 166.368 357.693 167.384 358.909 168.072L360.517 164.6C358.813 163.24 357.029 161.656 358.149 159.24C358.965 157.472 360.957 156.544 363.797 157.504L364.701 155.544L366.125 156.2L365.229 158.128C366.453 158.76 367.493 159.68 368.269 160.816L366.741 162.24C366.109 161.336 365.301 160.576 364.357 160L362.733 163.512C364.445 164.872 366.261 166.472 365.149 168.864C364.333 170.632 362.317 171.56 359.453 170.6V170.576L359.485 170.584Z" fill="#F5F5F5"/>
<path d="M74.6452 255.392C80.3252 257.368 83.3252 263.568 81.3492 269.24C79.3732 274.92 73.1732 277.92 67.5012 275.944C61.8212 273.968 58.8212 267.768 60.7972 262.096C62.7732 256.416 68.9732 253.416 74.6452 255.392Z" fill="#EBEBEB"/>
<path d="M71.2611 266.856L70.2211 269.104C71.2131 269.392 71.8051 269.144 72.0611 268.592C72.3491 267.968 71.9251 267.424 71.2611 266.848V266.856Z" fill="#F5F5F5"/>
<path d="M70.2851 262.88C70.0051 263.488 70.4211 264.024 71.0611 264.576L72.1091 262.312C71.1411 262.032 70.5491 262.312 70.2931 262.88H70.2851Z" fill="#F5F5F5"/>
<path d="M74.9811 257.24C70.3331 255.088 64.8131 257.12 62.6691 261.768C60.5171 266.416 62.5491 271.936 67.1971 274.08C71.8451 276.232 77.3651 274.2 79.5091 269.552C81.6611 264.904 79.6291 259.392 74.9811 257.24ZM69.5811 270.496L68.9251 271.92L67.8851 271.44L68.5331 270.032C67.3251 269.384 66.3091 268.416 65.9091 267.536L67.0771 266.52C67.5571 267.416 68.2851 268.16 69.1651 268.656L70.3411 266.12C69.0931 265.128 67.7891 263.968 68.6051 262.2C69.2051 260.904 70.6531 260.224 72.7331 260.928L73.3971 259.496L74.4371 259.976L73.7811 261.384C74.6771 261.84 75.4371 262.52 76.0051 263.352L74.8931 264.392C74.4291 263.728 73.8371 263.176 73.1491 262.752L71.9651 265.32C73.2211 266.312 74.5411 267.488 73.7331 269.232C73.1331 270.52 71.6611 271.2 69.5731 270.496V270.48L69.5811 270.496Z" fill="#F5F5F5"/>
<path d="M64.5304 160.91C73.2858 150.637 72.0555 135.211 61.7825 126.456C51.5095 117.7 36.0839 118.931 27.3285 129.204C18.5731 139.477 19.8034 154.902 30.0764 163.658C40.3494 172.413 55.775 171.183 64.5304 160.91Z" fill="#EBEBEB"/>
<path d="M48.0854 146.704L49.8694 151.976C51.9254 150.912 52.5094 149.584 52.0694 148.304C51.5734 146.848 50.0374 146.608 48.0774 146.704H48.0854Z" fill="#F5F5F5"/>
<path d="M40.3253 141.736C40.8133 143.168 42.3173 143.376 44.2053 143.304L42.4053 138C40.4053 139.048 39.8693 140.416 40.3173 141.736H40.3253Z" fill="#F5F5F5"/>
<path d="M39.2533 125.28C28.3493 128.976 22.5093 140.808 26.2053 151.712C29.9013 162.616 41.7333 168.456 52.6293 164.76C63.5333 161.064 69.3733 149.232 65.6773 138.328C61.9813 127.424 50.1493 121.584 39.2533 125.28ZM50.9733 155.216L52.1013 158.552L49.6613 159.384L48.5413 156.088C45.5653 156.896 42.4133 156.904 40.4133 156.088L40.7413 152.624C42.9093 153.344 45.2373 153.432 47.4613 152.872L45.4453 146.92C41.8693 147.232 37.9653 147.36 36.5653 143.224C35.5333 140.192 36.8533 136.84 41.3253 134.768L40.1813 131.4L42.6213 130.568L43.7413 133.88C45.9093 133.248 48.1973 133.168 50.3973 133.648L50.1973 137.072C48.4293 136.712 46.5973 136.72 44.8293 137.096L46.8693 143.112C50.4453 142.792 54.4133 142.648 55.8053 146.744C56.8293 149.768 55.4853 153.152 50.9893 155.248L50.9733 155.208V155.216Z" fill="#F5F5F5"/>
<path d="M257.677 27.7839V75.9439H322.749V27.7839L257.677 27.7839Z" fill="#EBEBEB"/>
<path d="M262.445 31.8559V71.864H317.973V31.8559H262.445Z" fill="white" stroke="#E0E0E0" stroke-width="0.4" stroke-miterlimit="10"/>
<path d="M257.677 75.944L262.453 71.864V31.856L257.677 27.784V75.944Z" fill="#E0E0E0"/>
<path d="M322.749 75.9439L317.981 71.8719V31.8639L322.749 27.7919C323.101 27.9279 322.749 75.9519 322.749 75.9519V75.9439Z" fill="#E0E0E0"/>
<path d="M271.949 45.8719H309.333" stroke="#E0E0E0" stroke-width="0.8" stroke-linecap="round" stroke-linejoin="round"/>
<path d="M271.949 50.5599H309.333" stroke="#E0E0E0" stroke-width="0.8" stroke-linecap="round" stroke-linejoin="round"/>
<path d="M283.941 55.2559H299.021" stroke="#E0E0E0" stroke-width="0.8" stroke-linecap="round" stroke-linejoin="round"/>
<path d="M277.669 62.08H272.549" stroke="#E0E0E0" stroke-width="0.8" stroke-linecap="round" stroke-linejoin="round"/>
<path d="M307.397 58.712C309.085 58.712 310.453 59.984 310.453 61.56C310.453 63.136 309.085 64.408 307.397 64.408C305.709 64.408 304.341 63.136 304.341 61.56C304.341 59.984 305.709 58.712 307.397 58.712Z" fill="#E0E0E0"/>
<path d="M283.941 40.6H299.021" stroke="#E0E0E0" stroke-width="0.8" stroke-linecap="round" stroke-linejoin="round"/>
<path d="M367.517 349.312C367.517 355.192 292.749 359.96 200.517 359.96C108.285 359.96 33.5172 355.192 33.5172 349.312C33.5172 343.432 108.285 338.664 200.517 338.664C292.749 338.664 367.517 343.432 367.517 349.312Z" fill="#F5F5F5"/>
<path d="M235.909 125.912C242.005 123.152 249.189 125.856 251.957 131.952C254.717 138.048 252.013 145.232 245.917 148C239.821 150.76 232.637 148.056 229.869 141.96C227.109 135.864 229.813 128.68 235.909 125.912Z" fill="#407BFF"/>
<path opacity="0.1" d="M235.909 125.912C242.005 123.152 249.189 125.856 251.957 131.952C254.717 138.048 252.013 145.232 245.917 148C239.821 150.76 232.637 148.056 229.869 141.96C227.109 135.864 229.813 128.68 235.909 125.912Z" fill="black"/>
<path opacity="0.3" d="M241.981 137.768L242.869 140.384C243.893 139.856 244.173 139.2 243.965 138.56C243.717 137.84 242.957 137.72 241.989 137.768H241.981Z" fill="white"/>
<path opacity="0.3" d="M238.133 135.304C238.373 136.016 239.117 136.12 240.061 136.08L239.173 133.448C238.181 133.968 237.917 134.648 238.141 135.304H238.133Z" fill="white"/>
<path opacity="0.3" d="M237.605 127.144C232.197 128.976 229.301 134.848 231.133 140.248C232.965 145.656 238.837 148.552 244.237 146.72C249.645 144.888 252.541 139.016 250.709 133.616C248.877 128.208 243.005 125.312 237.605 127.144ZM243.413 141.992L243.973 143.648L242.765 144.056L242.213 142.416C240.741 142.816 239.173 142.824 238.181 142.416L238.341 140.696C239.421 141.056 240.573 141.096 241.669 140.816L240.669 137.864C238.893 138.016 236.957 138.08 236.261 136.032C235.749 134.528 236.405 132.864 238.621 131.84L238.053 130.168L239.261 129.76L239.821 131.4C240.893 131.088 242.029 131.048 243.125 131.28L243.021 132.976C242.141 132.792 241.237 132.8 240.357 132.992L241.365 135.976C243.141 135.816 245.109 135.744 245.797 137.776C246.309 139.28 245.637 140.952 243.405 141.992V141.976L243.413 141.992Z" fill="white"/>
<path d="M226.876 110.301C240.018 109.862 250.316 98.8539 249.878 85.7124C249.439 72.5709 238.431 62.2729 225.289 62.7111C212.148 63.1494 201.85 74.1579 202.288 87.2994C202.726 100.441 213.735 110.739 226.876 110.301Z" fill="#407BFF"/>
<path opacity="0.1" d="M226.876 110.301C240.018 109.862 250.316 98.8539 249.878 85.7124C249.439 72.5709 238.431 62.2729 225.289 62.7111C212.148 63.1494 201.85 74.1579 202.288 87.2994C202.726 100.441 213.735 110.739 226.876 110.301Z" fill="black"/>
<path opacity="0.3" d="M227.133 88.92L226.133 94.248C228.389 94.328 229.517 93.472 229.757 92.184C230.029 90.712 228.845 89.768 227.133 88.92Z" fill="white"/>
<path opacity="0.3" d="M222.917 81C222.645 82.448 223.829 83.344 225.469 84.184L226.469 78.824C224.269 78.76 223.165 79.672 222.917 81Z" fill="white"/>
<path opacity="0.3" d="M229.853 66.512C218.829 64.448 208.229 71.712 206.165 82.728C204.101 93.752 211.365 104.352 222.381 106.416C233.405 108.48 244.005 101.216 246.069 90.2C248.133 79.176 240.869 68.576 229.853 66.512ZM225.525 97.536L224.893 100.912L222.421 100.448L223.045 97.112C220.133 96.384 217.453 94.888 216.141 93.232L218.069 90.448C219.565 92.096 221.509 93.28 223.653 93.864L224.781 87.848C221.597 86.408 218.221 84.656 219.005 80.472C219.581 77.4 222.293 75.184 227.085 75.56L227.725 72.16L230.197 72.624L229.573 75.968C231.717 76.464 233.693 77.488 235.341 78.944L233.533 81.752C232.205 80.6 230.645 79.736 228.965 79.216L227.829 85.296C231.021 86.728 234.461 88.504 233.685 92.648C233.109 95.704 230.357 97.936 225.533 97.576V97.536H225.525Z" fill="white"/>
<path opacity="0.3" d="M213.709 66.168L214.053 107.056C214.053 107.056 210.029 105.584 208.957 102.8C207.885 100.016 208.957 69.968 208.957 69.968C208.957 69.968 212.213 67.008 213.709 66.168Z" fill="black"/>
<path d="M178.213 271.584C187.518 271.584 195.061 264.041 195.061 254.736C195.061 245.431 187.518 237.888 178.213 237.888C168.908 237.888 161.365 245.431 161.365 254.736C161.365 264.041 168.908 271.584 178.213 271.584Z" fill="#407BFF"/>
<path opacity="0.1" d="M178.213 271.584C187.518 271.584 195.061 264.041 195.061 254.736C195.061 245.431 187.518 237.888 178.213 237.888C168.908 237.888 161.365 245.431 161.365 254.736C161.365 264.041 168.908 271.584 178.213 271.584Z" fill="black"/>
<path opacity="0.3" d="M176.517 255.512L172.725 254.896C172.709 256.496 173.325 257.272 174.245 257.424C175.293 257.592 175.941 256.736 176.509 255.512H176.517Z" fill="white"/>
<path opacity="0.3" d="M182.053 252.4C181.029 252.232 180.413 253.08 179.845 254.256L183.653 254.88C183.661 253.32 182.997 252.552 182.053 252.4Z" fill="white"/>
<path opacity="0.3" d="M192.413 257.072C193.693 249.24 188.381 241.856 180.549 240.576C172.717 239.296 165.333 244.608 164.053 252.44C162.773 260.272 168.085 267.656 175.917 268.936C183.749 270.216 191.133 264.904 192.413 257.072ZM170.397 254.512L167.997 254.12L168.285 252.368L170.653 252.752C171.125 250.68 172.141 248.76 173.285 247.8L175.285 249.12C174.149 250.208 173.341 251.6 172.957 253.128L177.229 253.824C178.197 251.552 179.381 249.128 182.357 249.616C184.541 249.976 186.149 251.856 185.965 255.256L188.381 255.648L188.093 257.4L185.717 257.008C185.405 258.528 184.709 259.952 183.701 261.136L181.685 259.904C182.477 258.944 183.069 257.832 183.405 256.632L179.085 255.928C178.125 258.208 176.925 260.672 173.981 260.192C171.805 259.84 170.189 257.92 170.365 254.504H170.389L170.397 254.512Z" fill="white"/>
<path opacity="0.3" d="M192.397 245.64L163.469 246.552C163.469 246.552 164.445 243.68 166.397 242.88C168.349 242.072 189.629 242.344 189.629 242.344C189.629 242.344 191.781 244.6 192.397 245.64Z" fill="black"/>
<path d="M209.293 30.312H64.261V243.248H209.293V30.312Z" fill="#407BFF"/>
<path opacity="0.4" d="M209.293 30.312H64.261V243.248H209.293V30.312Z" fill="white"/>
<path d="M203.621 23.896H58.589V239.136H203.621V23.896Z" fill="#407BFF"/>
<path opacity="0.6" d="M203.621 23.896H58.589V239.136H203.621V23.896Z" fill="white"/>
<path d="M198.069 19.1199H53.037V234.36H198.069V19.1199Z" fill="#407BFF"/>
<path opacity="0.8" d="M198.069 19.1199H53.037V234.36H198.069V19.1199Z" fill="white"/>
<path opacity="0.3" d="M127.861 30.2239H62.885V59.6399H127.861V30.2239Z" fill="#407BFF"/>
<path d="M72.221 39.7919H65.989V36.1199H82.949V39.7919H76.717V55.5839H72.213V39.7919H72.221Z" fill="#407BFF"/>
<path d="M97.221 51.4159H88.181L86.453 55.5839H81.837L90.517 36.1199H94.965L103.669 55.5839H98.941L97.213 51.4159H97.221ZM95.805 47.9999L92.717 40.5439L89.629 47.9999H95.805Z" fill="#407BFF"/>
<path d="M116.965 55.5919L112.269 48.8319L107.653 55.5919H102.485L109.685 45.6959L102.845 36.1279H107.965L112.445 42.4399L116.837 36.1279H121.701L114.917 45.5279L122.173 55.5919H116.973H116.965Z" fill="#407BFF"/>
<path d="M187.797 35.8159H131.109V39.7439H187.797V35.8159Z" fill="#407BFF"/>
<path d="M187.797 43.952H131.109V47.88H187.797V43.952Z" fill="#407BFF"/>
<path d="M187.797 52.088H131.109V56.016H187.797V52.088Z" fill="#407BFF"/>
<path opacity="0.3" d="M188.693 63.4399H62.885V73.1839H188.693V63.4399Z" fill="#407BFF"/>
<path opacity="0.3" d="M188.693 213.408H62.885V223.152H188.693V213.408Z" fill="#407BFF"/>
<path opacity="0.3" d="M188.693 150.144H62.4771V159.888H188.693V150.144Z" fill="#407BFF"/>
<path d="M187.573 169.072H84.261V175.648H187.573V169.072Z" fill="#407BFF"/>
<path d="M187.573 182.712H84.261V189.288H187.573V182.712Z" fill="#407BFF"/>
<path d="M187.573 197.344H84.261V203.92H187.573V197.344Z" fill="#407BFF"/>
<path d="M188.693 141.728H64.8051C64.2691 141.728 63.6371 141.632 63.1091 141.728C63.0371 141.744 62.9571 141.728 62.8851 141.728L63.4851 142.328V80.6L62.8851 81.2H186.781C187.317 81.2 187.949 81.296 188.477 81.2C188.549 81.184 188.629 81.2 188.701 81.2L188.101 80.6V142.328C188.101 143.104 189.301 143.104 189.301 142.328V80.6C189.301 80.272 189.029 80 188.701 80H68.0291C66.3971 80 64.7331 79.92 63.1011 80C63.0291 80 62.9571 80 62.8771 80C62.5491 80 62.2771 80.272 62.2771 80.6V142.328C62.2771 142.656 62.5491 142.928 62.8771 142.928H183.541C185.173 142.928 186.837 143.008 188.469 142.928C188.541 142.928 188.613 142.928 188.693 142.928C189.469 142.928 189.469 141.728 188.693 141.728Z" fill="#263238"/>
<path d="M150.965 81.5681V142.288C150.965 143.064 152.165 143.064 152.165 142.288V81.5681C152.165 80.7921 150.965 80.7921 150.965 81.5681Z" fill="#263238"/>
<path d="M63.8132 92.864H187.797C188.573 92.864 188.573 91.664 187.797 91.664H63.8132C63.0372 91.664 63.0372 92.864 63.8132 92.864Z" fill="#263238"/>
<path d="M63.8132 102.816H187.797C188.573 102.816 188.573 101.616 187.797 101.616H63.8132C63.0372 101.616 63.0372 102.816 63.8132 102.816Z" fill="#263238"/>
<path d="M63.8132 112.776H187.797C188.573 112.776 188.573 111.576 187.797 111.576H63.8132C63.0372 111.576 63.0372 112.776 63.8132 112.776Z" fill="#263238"/>
<path d="M63.8132 122.728H187.797C188.573 122.728 188.573 121.528 187.797 121.528H63.8132C63.0372 121.528 63.0372 122.728 63.8132 122.728Z" fill="#263238"/>
<path d="M63.8132 132.68H187.797C188.573 132.68 188.573 131.48 187.797 131.48H63.8132C63.0372 131.48 63.0372 132.68 63.8132 132.68Z" fill="#263238"/>
<path d="M76.6131 176.944H66.8451L67.1491 177.248V167.48L66.8451 167.784H76.6131L76.3091 167.48V177.248C76.3091 177.632 76.9091 177.632 76.9091 177.248V167.48C76.9091 167.32 76.7731 167.176 76.6051 167.176H66.8371C66.6771 167.176 66.5331 167.312 66.5331 167.48V177.248C66.5331 177.408 66.6691 177.552 66.8371 177.552H76.6051C76.9891 177.552 76.9891 176.952 76.6051 176.952L76.6131 176.944Z" fill="#407BFF"/>
<path d="M76.6131 191.112H66.8451L67.1491 191.416V181.648L66.8451 181.952H76.6131L76.3091 181.648V191.416C76.3091 191.8 76.9091 191.8 76.9091 191.416V181.648C76.9091 181.488 76.7731 181.344 76.6051 181.344H66.8371C66.6771 181.344 66.5331 181.48 66.5331 181.648V191.416C66.5331 191.576 66.6691 191.72 66.8371 191.72H76.6051C76.9891 191.72 76.9891 191.12 76.6051 191.12L76.6131 191.112Z" fill="#407BFF"/>
<path d="M76.6131 205.216H66.8451L67.1491 205.52V195.752L66.8451 196.056H76.6131L76.3091 195.752V205.52C76.3091 205.904 76.9091 205.904 76.9091 205.52V195.752C76.9091 195.592 76.7731 195.448 76.6051 195.448H66.8371C66.6771 195.448 66.5331 195.584 66.5331 195.752V205.52C66.5331 205.68 66.6691 205.824 66.8371 205.824H76.6051C76.9891 205.824 76.9891 205.224 76.6051 205.224L76.6131 205.216Z" fill="#407BFF"/>
<path d="M68.8691 10.864H68.4131C66.3674 10.864 64.7091 12.5224 64.7091 14.568V22.744C64.7091 24.7897 66.3674 26.448 68.4131 26.448H68.8691C70.9148 26.448 72.5731 24.7897 72.5731 22.744V14.568C72.5731 12.5224 70.9148 10.864 68.8691 10.864Z" fill="#407BFF"/>
<path d="M363.157 96.832H305.485C303.665 96.832 302.189 98.3077 302.189 100.128V114.312C302.189 116.132 303.665 117.608 305.485 117.608H363.157C364.978 117.608 366.453 116.132 366.453 114.312V100.128C366.453 98.3077 364.978 96.832 363.157 96.832Z" fill="#407BFF"/>
<path opacity="0.8" d="M363.157 96.832H305.485C303.665 96.832 302.189 98.3077 302.189 100.128V114.312C302.189 116.132 303.665 117.608 305.485 117.608H363.157C364.978 117.608 366.453 116.132 366.453 114.312V100.128C366.453 98.3077 364.978 96.832 363.157 96.832Z" fill="white"/>
<path d="M305.813 121.312H349.053C351.245 121.312 353.029 123.088 353.029 125.288V138.12C353.029 140.312 351.253 142.096 349.053 142.096H313.629C313.637 143.528 313.629 147.448 305.837 148.256C305.837 148.256 309.205 146.736 308.661 142.096H305.821C303.629 142.096 301.845 140.32 301.845 138.12V125.288C301.845 123.096 303.621 121.312 305.821 121.312H305.813Z" fill="#407BFF"/>
<path opacity="0.8" d="M305.813 121.312H349.053C351.245 121.312 353.029 123.088 353.029 125.288V138.12C353.029 140.312 351.253 142.096 349.053 142.096H313.629C313.637 143.528 313.629 147.448 305.837 148.256C305.837 148.256 309.205 146.736 308.661 142.096H305.821C303.629 142.096 301.845 140.32 301.845 138.12V125.288C301.845 123.096 303.621 121.312 305.821 121.312H305.813Z" fill="white"/>
<path d="M339.013 72.384H306.093C304.273 72.384 302.797 73.8597 302.797 75.68V89.864C302.797 91.6844 304.273 93.16 306.093 93.16H339.013C340.834 93.16 342.309 91.6844 342.309 89.864V75.68C342.309 73.8597 340.834 72.384 339.013 72.384Z" fill="#407BFF"/>
<path opacity="0.8" d="M339.013 72.384H306.093C304.273 72.384 302.797 73.8597 302.797 75.68V89.864C302.797 91.6844 304.273 93.16 306.093 93.16H339.013C340.834 93.16 342.309 91.6844 342.309 89.864V75.68C342.309 73.8597 340.834 72.384 339.013 72.384Z" fill="white"/>
<path d="M320.893 78.368V86.472H319.013V79.872H317.389V78.368H320.885H320.893Z" fill="#407BFF"/>
<path d="M328.437 83.928C328.437 85.36 327.381 86.616 325.069 86.616C323.949 86.616 322.765 86.304 321.981 85.744L322.725 84.312C323.341 84.776 324.181 85.04 325.029 85.04C325.965 85.04 326.549 84.648 326.549 83.984C326.549 83.32 326.133 82.928 324.661 82.928H322.589L323.005 78.368H327.949V79.872H324.565L324.437 81.408H325.093C327.493 81.408 328.437 82.488 328.437 83.92V83.928Z" fill="#407BFF"/>
<path d="M328.949 80.512C328.949 79.144 329.781 78.28 330.965 78.28C332.149 78.28 332.965 79.136 332.965 80.512C332.965 81.888 332.141 82.744 330.965 82.744C329.789 82.744 328.949 81.872 328.949 80.512ZM331.805 80.512C331.805 79.64 331.469 79.224 330.957 79.224C330.445 79.224 330.109 79.648 330.109 80.512C330.109 81.376 330.453 81.8 330.957 81.8C331.461 81.8 331.805 81.384 331.805 80.512ZM335.789 78.368H337.165L331.629 86.472H330.253L335.789 78.368ZM334.461 84.336C334.461 82.968 335.293 82.104 336.461 82.104C337.629 82.104 338.477 82.976 338.477 84.336C338.477 85.696 337.645 86.568 336.461 86.568C335.277 86.568 334.461 85.696 334.461 84.336ZM337.309 84.336C337.309 83.48 336.973 83.048 336.461 83.048C335.949 83.048 335.613 83.464 335.613 84.336C335.613 85.208 335.957 85.624 336.461 85.624C336.965 85.624 337.309 85.2 337.309 84.336Z" fill="#407BFF"/>
<path d="M314.477 82.096H309.837V83.808H314.477V82.096Z" fill="#407BFF"/>
<path d="M333.661 105.328H311.445V108.952H333.661V105.328Z" fill="#407BFF"/>
<path d="M354.861 113.256C358.184 113.256 360.877 110.563 360.877 107.24C360.877 103.918 358.184 101.224 354.861 101.224C351.539 101.224 348.845 103.918 348.845 107.24C348.845 110.563 351.539 113.256 354.861 113.256Z" fill="#407BFF"/>
<path opacity="0.8" d="M351.845 107.68L354.685 109.576L357.877 104.904" stroke="white" stroke-width="0.8" stroke-miterlimit="10"/>
<path d="M326.189 129.704H306.429V133.328H326.189V129.704Z" fill="#407BFF"/>
<path d="M342.957 137.624C346.28 137.624 348.973 134.931 348.973 131.608C348.973 128.285 346.28 125.592 342.957 125.592C339.635 125.592 336.941 128.285 336.941 131.608C336.941 134.931 339.635 137.624 342.957 137.624Z" fill="#407BFF"/>
<path opacity="0.8" d="M339.941 132.048L342.781 133.952L345.973 129.272" stroke="white" stroke-width="0.8" stroke-miterlimit="10"/>
<path opacity="0.8" d="M303.837 201.56C303.837 201.56 300.901 260.416 288.229 270.552H301.789C301.789 270.552 313.877 250.504 314.781 201.56H303.845H303.837Z" fill="#263238"/>
<path opacity="0.6" d="M303.837 201.56C303.837 201.56 300.901 260.416 288.229 270.552H301.789C301.789 270.552 313.877 250.504 314.781 201.56H303.845H303.837Z" fill="white"/>
<path d="M313.973 275.424H243.669V269.264C243.669 267.28 245.277 265.672 247.261 265.672H310.381C312.365 265.672 313.973 267.28 313.973 269.264V275.424Z" fill="#407BFF"/>
<path opacity="0.3" d="M313.973 275.424H243.669V269.264C243.669 267.28 245.277 265.672 247.261 265.672H310.381C312.365 265.672 313.973 267.28 313.973 269.264V275.424Z" fill="black"/>
<path d="M311.317 332.144L284.213 329.784V287.12H274.685V329.776L247.485 332.152C245.085 332.384 243.261 334.4 243.261 336.808V340.416H315.541V336.808C315.541 334.4 313.717 332.384 311.317 332.152V332.144Z" fill="#263238"/>
<path opacity="0.5" d="M311.317 332.144L284.213 329.784V287.12H274.685V329.776L247.485 332.152C245.085 332.384 243.261 334.4 243.261 336.808V340.416H315.541V336.808C315.541 334.4 313.717 332.384 311.317 332.152V332.144Z" fill="white"/>
<path d="M285.053 344.896C285.053 348.336 282.261 351.128 278.821 351.128C275.381 351.128 272.589 348.336 272.589 344.896C272.589 341.456 275.381 338.664 278.821 338.664C282.261 338.664 285.053 341.456 285.053 344.896Z" fill="#263238"/>
<path d="M306.765 344.896C306.765 348.336 309.557 351.128 312.997 351.128C316.437 351.128 319.229 348.336 319.229 344.896C319.229 341.456 316.437 338.664 312.997 338.664C309.557 338.664 306.765 341.456 306.765 344.896Z" fill="#263238"/>
<path d="M273.261 271.968H286.069V299.296C286.069 300.936 284.741 302.264 283.101 302.264H276.237C274.597 302.264 273.269 300.936 273.269 299.296V271.968H273.261Z" fill="#263238"/>
<path opacity="0.6" d="M273.261 271.968H286.069V299.296C286.069 300.936 284.741 302.264 283.101 302.264H276.237C274.597 302.264 273.269 300.936 273.269 299.296V271.968H273.261Z" fill="white"/>
<path d="M242.437 275.424H315.197C315.997 275.424 316.645 274.776 316.645 273.976V271.992C316.645 271.192 315.997 270.544 315.197 270.544H242.437C241.637 270.544 240.989 271.192 240.989 271.992V273.976C240.989 274.776 241.637 275.424 242.437 275.424Z" fill="#263238"/>
<path opacity="0.6" d="M242.437 275.424H315.197C315.997 275.424 316.645 274.776 316.645 273.976V271.992C316.645 271.192 315.997 270.544 315.197 270.544H242.437C241.637 270.544 240.989 271.192 240.989 271.992V273.976C240.989 274.776 241.637 275.424 242.437 275.424Z" fill="white"/>
<path d="M312.269 260.216H289.941C283.397 260.216 278.677 254.336 279.389 247.088L289.541 190.352C290.253 183.104 296.133 177.224 302.677 177.224H325.005C331.549 177.224 336.269 183.104 335.557 190.352L325.405 247.088C324.693 254.336 318.813 260.216 312.269 260.216Z" fill="#407BFF"/>
<path opacity="0.3" d="M312.269 260.216H289.941C283.397 260.216 278.677 254.336 279.389 247.088L289.541 190.352C290.253 183.104 296.133 177.224 302.677 177.224H325.005C331.549 177.224 336.269 183.104 335.557 190.352L325.405 247.088C324.693 254.336 318.813 260.216 312.269 260.216Z" fill="black"/>
<path opacity="0.3" d="M325.005 177.224H320.741C327.285 177.224 332.005 183.104 331.293 190.352L321.141 247.088C320.429 254.336 314.549 260.216 308.005 260.216H312.269C318.813 260.216 324.693 254.336 325.405 247.088L335.557 190.352C336.269 183.104 331.549 177.224 325.005 177.224Z" fill="black"/>
<path d="M326.869 157.2H305.029C301.181 157.2 298.061 160.32 298.061 164.168V170.768C298.061 174.616 301.181 177.736 305.029 177.736H326.869C330.717 177.736 333.837 174.616 333.837 170.768V164.168C333.837 160.32 330.717 157.2 326.869 157.2Z" fill="#407BFF"/>
<path opacity="0.5" d="M326.869 157.2H305.029C301.181 157.2 298.061 160.32 298.061 164.168V170.768C298.061 174.616 301.181 177.736 305.029 177.736H326.869C330.717 177.736 333.837 174.616 333.837 170.768V164.168C333.837 160.32 330.717 157.2 326.869 157.2Z" fill="black"/>
<path d="M322.917 157.2H301.077C297.229 157.2 294.109 160.32 294.109 164.168V170.768C294.109 174.616 297.229 177.736 301.077 177.736H322.917C326.765 177.736 329.885 174.616 329.885 170.768V164.168C329.885 160.32 326.765 157.2 322.917 157.2Z" fill="#407BFF"/>
<path opacity="0.3" d="M322.917 157.2H301.077C297.229 157.2 294.109 160.32 294.109 164.168V170.768C294.109 174.616 297.229 177.736 301.077 177.736H322.917C326.765 177.736 329.885 174.616 329.885 170.768V164.168C329.885 160.32 326.765 157.2 322.917 157.2Z" fill="black"/>
<g opacity="0.3">
<path d="M321.789 177.512H305.821C305.437 177.512 305.437 178.112 305.821 178.112H321.789C322.173 178.112 322.173 177.512 321.789 177.512Z" fill="black"/>
</g>
<path d="M286.453 124.68C286.453 124.68 281.917 115.624 270.805 120.056C263.805 122.848 258.901 126.296 259.989 132.688C260.709 136.944 265.013 139.92 267.629 139.6C270.253 139.28 289.085 131.656 289.085 131.656C289.085 131.656 293.125 126.152 286.453 124.672V124.68Z" fill="#263238"/>
<path d="M287.389 164.392C283.357 159.944 285.541 150.792 287.101 145.064L273.813 154.328C274.037 155.024 274.221 155.744 274.349 156.464C274.629 157.76 275.077 158.24 275.021 160.656C274.837 162.76 273.797 164.704 273.765 164.752C273.765 164.752 274.157 168.208 279.941 168.488C284.389 167.88 287.381 164.4 287.381 164.4L287.389 164.392Z" fill="#FDBBB5"/>
<path opacity="0.2" d="M285.101 150.432C284.997 157.336 278.581 160.36 274.989 161C275.213 159.768 274.989 158.264 274.341 156.48L285.101 150.432Z" fill="#263238"/>
<path d="M287.397 137.424C287.573 145.688 287.845 150.344 283.925 154.904C278.029 161.768 267.517 159.016 264.797 150.968C262.349 143.728 262.469 131.432 270.485 127.496C278.381 123.616 287.213 129.16 287.389 137.424H287.397Z" fill="#FDBBB5"/>
<path d="M275.437 141.064C275.509 141.904 275.109 142.624 274.541 142.672C273.973 142.72 273.461 142.072 273.389 141.232C273.317 140.392 273.717 139.672 274.285 139.624C274.853 139.576 275.365 140.224 275.437 141.064Z" fill="#263238"/>
<path d="M268.069 141.608C268.141 142.448 267.741 143.168 267.173 143.216C266.605 143.264 266.093 142.616 266.021 141.776C265.949 140.936 266.349 140.216 266.917 140.168C267.485 140.12 267.997 140.768 268.069 141.608Z" fill="#263238"/>
<path d="M270.733 139.864C270.733 139.864 268.349 144.288 267.621 146.064C268.917 147.016 270.941 146.336 270.941 146.336L270.733 139.856V139.864Z" fill="#FF807B"/>
<path d="M277.277 137.448C277.157 137.52 276.997 137.528 276.869 137.448C275.301 136.576 273.949 137.224 273.941 137.224C273.741 137.32 273.493 137.248 273.397 137.056C273.293 136.864 273.381 136.624 273.581 136.528C273.653 136.496 275.341 135.68 277.285 136.768C277.477 136.872 277.549 137.12 277.429 137.304C277.389 137.368 277.341 137.416 277.285 137.448H277.277Z" fill="#263238"/>
<path d="M264.661 137.936C264.589 137.904 264.533 137.848 264.493 137.776C264.381 137.584 264.453 137.344 264.645 137.24C266.597 136.192 268.245 137.056 268.325 137.088C268.525 137.192 268.597 137.432 268.493 137.624C268.389 137.816 268.149 137.888 267.949 137.784C267.885 137.744 266.605 137.096 265.037 137.936C264.917 138 264.773 138 264.653 137.936H264.661Z" fill="#263238"/>
<path d="M282.125 126.648C282.125 126.648 274.949 134.056 267.389 130.808C259.829 127.56 275.709 119.472 282.125 126.648Z" fill="#263238"/>
<path d="M292.269 128.44C289.709 124.904 286.261 126.056 286.261 126.056C285.957 126.736 285.749 127.408 285.597 128.072C283.805 126.944 282.061 126.112 281.061 126.336C278.373 126.944 280.141 128.864 280.141 128.864C280.141 128.864 282.277 130.432 282.349 132.472C282.405 134 282.141 135.576 282.005 136.272C281.453 138.936 280.565 142.08 281.453 143.008C282.909 144.528 284.021 142.848 287.197 140.944C287.629 140.68 288.117 140.472 288.797 140.416C288.173 143.288 287.557 145.672 287.045 147.392C286.893 147.904 286.725 148.376 286.533 148.816C288.909 145.648 291.629 141.88 292.461 140.2C292.629 139.864 292.757 139.528 292.853 139.216C294.125 136.72 294.821 131.984 292.261 128.448L292.269 128.44Z" fill="#263238"/>
<path d="M291.317 143.976C290.821 146.152 289.333 147.904 287.725 148.864C285.309 150.312 284.141 147.712 284.157 145.104C284.173 142.752 284.637 139.856 287.373 139.464C290.069 139.08 291.877 141.488 291.309 143.976H291.317Z" fill="#FDBBB5"/>
<path opacity="0.2" d="M289.197 141.872C288.813 141.408 288.109 141.296 287.525 141.488C286.949 141.68 286.493 142.136 286.173 142.648C285.789 143.256 285.573 143.968 285.549 144.68" stroke="black" stroke-width="0.6" stroke-linecap="round" stroke-linejoin="round"/>
<g opacity="0.3">
<path d="M283.117 133.224C286.493 132.896 289.741 131.792 292.613 129.984C292.941 129.776 292.637 129.256 292.309 129.464C289.533 131.208 286.381 132.296 283.117 132.616C282.733 132.656 282.733 133.256 283.117 133.216V133.224Z" fill="black"/>
</g>
<g opacity="0.3">
<path d="M283.181 134.976C286.653 135.464 290.181 135.112 293.477 133.936C293.837 133.808 293.685 133.224 293.317 133.36C290.125 134.496 286.701 134.864 283.341 134.4C282.965 134.344 282.797 134.928 283.181 134.976Z" fill="black"/>
</g>
<g opacity="0.3">
<path d="M272.821 130.888C271.165 130.28 269.789 128.936 269.181 127.272C268.525 125.48 268.789 123.456 269.805 121.856C270.013 121.528 269.493 121.224 269.285 121.552C268.165 123.32 267.885 125.592 268.645 127.56C269.349 129.376 270.829 130.792 272.653 131.464C273.013 131.6 273.173 131.016 272.813 130.888H272.821Z" fill="black"/>
</g>
<g opacity="0.3">
<path d="M268.101 130.488C265.237 129.368 263.861 126.104 264.965 123.256C265.101 122.896 264.525 122.736 264.389 123.096C263.165 126.28 264.797 129.84 267.941 131.064C268.301 131.208 268.453 130.624 268.101 130.488Z" fill="black"/>
</g>
<path d="M273.093 149.952C274.381 149.728 275.469 148.808 275.965 147.616C276.029 147.464 275.901 147.288 275.757 147.248C275.581 147.2 275.453 147.304 275.389 147.456C274.973 148.464 274.005 149.192 272.933 149.376C272.773 149.4 272.685 149.6 272.725 149.744C272.773 149.912 272.933 149.984 273.093 149.952Z" fill="#263238"/>
<path d="M294.917 167.792L287.365 163.32L280.013 166.344L273.405 164.176L270.045 166.344L266.845 174.984C266.845 174.984 260.893 240.664 261.477 241.184C262.053 241.704 288.733 252.296 288.733 252.296L299.157 177.192L294.925 167.792H294.917Z" fill="#407BFF"/>
<path opacity="0.8" d="M294.917 167.792L287.365 163.32L280.013 166.344L273.405 164.176L270.045 166.344L266.845 174.984C266.845 174.984 260.893 240.664 261.477 241.184C262.053 241.704 288.733 252.296 288.733 252.296L299.157 177.192L294.925 167.792H294.917Z" fill="white"/>
<path d="M278.029 171.136C278.069 171.704 269.717 225.944 269.717 225.944L274.045 236.192L280.213 226.768L280.165 215.872L280.677 170.888L278.029 171.136Z" fill="#263238"/>
<path d="M273.645 164.16L274.837 161.808L279.893 165.608L285.421 160.304L287.557 163.736L287.141 167.496L277.677 171.28L273.773 169.872L273.645 164.16Z" fill="#407BFF"/>
<path opacity="0.8" d="M273.645 164.16L274.837 161.808L279.893 165.608L285.421 160.304L287.557 163.736L287.141 167.496L277.677 171.28L273.773 169.872L273.645 164.16Z" fill="white"/>
<path d="M276.765 169.096L278.565 166.344H279.901L281.877 169.096L280.525 171.496H278.253L276.765 169.096Z" fill="#263238"/>
<path d="M252.285 170.752C249.885 174 245.157 204.032 245.157 204.032L234.021 194.144C234.021 194.144 225.357 200.552 225.493 201.016C225.629 201.472 239.573 217.888 245.077 221.56C250.581 225.232 255.237 219.728 255.237 219.728L257.829 168.6V167.144C257.829 167.144 254.677 167.496 252.277 170.744L252.285 170.752Z" fill="#407BFF"/>
<g opacity="0.3">
<path d="M245.245 203.704C247.205 205.376 248.669 207.576 249.429 210.04C249.541 210.408 250.125 210.248 250.005 209.88C249.213 207.32 247.709 205.016 245.669 203.28C245.373 203.032 244.949 203.456 245.245 203.704Z" fill="black"/>
</g>
<path d="M233.301 197.76C232.573 196.568 225.973 193.272 225.973 193.272L222.333 195.208C222.333 195.208 222.437 195.312 222.613 195.496C223.613 196.52 227.021 199.912 227.693 199.744C228.485 199.544 234.029 198.952 233.309 197.76H233.301Z" fill="#FDBBB5"/>
<path d="M200.533 171.928C207.269 173.784 228.709 171.392 228.709 171.392L257.685 197.208L228.845 197.992C228.845 197.992 199.317 171.592 200.533 171.928Z" fill="#407BFF"/>
<path opacity="0.8" d="M200.533 171.928C207.269 173.784 228.709 171.392 228.709 171.392L257.685 197.208L228.845 197.992C228.845 197.992 199.317 171.592 200.533 171.928Z" fill="white"/>
<path d="M217.053 188.944C217.237 188.696 216.901 186.448 218.845 185.984C220.789 185.52 227.037 184.272 226.485 185.984C225.941 187.696 221.781 188.632 221.781 188.632V189.648C221.781 189.648 228.749 187 230.069 188.248C231.397 189.496 228.981 192.224 228.981 192.224C228.981 192.224 230.149 191.912 229.293 193.392C228.437 194.872 225.709 196.12 223.757 195.808C221.805 195.496 221.965 195.104 220.717 193.544C219.469 191.984 216.581 189.568 217.053 188.944Z" fill="#FDBBB5"/>
<g opacity="0.3">
<path d="M222.981 192.472C225.037 191.312 227.189 190.336 229.413 189.56C229.773 189.432 229.621 188.856 229.253 188.984C226.973 189.776 224.773 190.768 222.677 191.952C222.341 192.144 222.645 192.664 222.981 192.472Z" fill="black"/>
</g>
<g opacity="0.3">
<path d="M224.453 194.464C226.181 193.912 227.861 193.2 229.461 192.344C229.805 192.16 229.501 191.64 229.157 191.824C227.597 192.656 225.973 193.344 224.293 193.88C223.925 194 224.085 194.576 224.453 194.456V194.464Z" fill="black"/>
</g>
<path d="M265.245 237.432L266.597 233.928C273.349 238.136 282.253 235.64 290.885 233.696C290.885 233.696 290.429 255.856 290.429 255.544C290.429 255.232 265.245 237.44 265.245 237.44V237.432Z" fill="#263238"/>
<g opacity="0.3">
<path d="M255.141 177.08C253.981 190.632 254.077 204.248 253.085 217.816C253.053 218.2 253.653 218.2 253.685 217.816C254.677 204.256 254.589 190.632 255.741 177.08C255.773 176.696 255.173 176.696 255.141 177.08Z" fill="black"/>
</g>
<path d="M273.645 163.992L267.069 166.344L257.717 167.096L256.293 190.6L253.709 216.752C253.709 216.752 248.189 245.264 249.501 247.96C250.813 250.656 259.445 253.144 260.093 252.672C260.741 252.2 267.333 234.472 268.893 226.848C270.461 219.224 270.333 210.112 270.381 206.096C270.429 202.072 273.645 163.992 273.645 163.992Z" fill="#407BFF"/>
<g opacity="0.3">
<path d="M267.069 166.344H266.229C265.333 168.216 264.189 170.28 263.429 171.176C262.213 172.624 261.149 174.496 261.621 176.328C262.117 178.24 264.165 179.576 264.277 181.544C264.389 183.552 262.477 185.024 261.549 186.808C260.157 189.504 261.109 192.784 262.309 195.568C264.613 200.92 267.157 206.376 270.325 211.272C270.013 209.4 270.365 207.28 270.381 206.088C270.429 202.064 273.645 163.984 273.645 163.984L267.069 166.336V166.344Z" fill="#263238"/>
</g>
<path d="M302.397 155.32H315.957C316.341 155.32 316.341 154.72 315.957 154.72H302.397C302.013 154.72 302.013 155.32 302.397 155.32Z" fill="#407BFF"/>
<path d="M317.733 155.256H320.317C320.701 155.256 320.701 154.656 320.317 154.656H317.733C317.349 154.656 317.349 155.256 317.733 155.256Z" fill="#407BFF"/>
<path d="M238.877 340.088L236.829 327.104C236.829 327.104 246.901 325.248 246.701 325.376C246.501 325.504 247.365 338.992 247.365 338.992L238.877 340.088Z" fill="#407BFF"/>
<path d="M247.749 337.168C247.829 336.016 246.125 336.664 244.861 337.296C243.941 337.76 242.885 337.88 241.885 337.648L241.501 337.56L241.197 335.736C240.933 334.168 240.061 333.184 238.549 333.456C237.805 333.584 236.277 334.968 236.253 336.072C236.189 339.008 233.557 340.04 233.557 340.04C233.557 340.04 225.021 344.192 222.613 345.112C221.181 345.656 219.133 346.544 218.149 348.32C217.869 348.824 217.661 350.512 217.661 351.648L235.597 351.408C235.597 351.408 238.157 350.832 238.893 350.72C239.637 350.608 240.917 351.272 240.917 351.272L248.693 350.88C248.749 350.168 248.965 346.912 249.029 346.056C249.309 342.392 247.685 338.2 247.757 337.168H247.749Z" fill="#263238"/>
<path d="M228.813 341.872C228.909 341.768 229.061 341.752 229.181 341.832C229.725 342.184 230.189 342.696 230.509 343.344C230.677 343.688 230.205 344.032 230.029 343.688C229.741 343.112 229.341 342.664 228.861 342.352C228.701 342.248 228.669 342.024 228.805 341.88L228.813 341.872Z" fill="white"/>
<path d="M230.821 340.848C230.917 340.744 231.069 340.728 231.189 340.808C231.733 341.16 232.197 341.672 232.517 342.32C232.685 342.664 232.213 343.008 232.037 342.664C231.749 342.088 231.349 341.64 230.869 341.328C230.709 341.224 230.677 341 230.805 340.856L230.821 340.848Z" fill="white"/>
<path d="M232.917 339.968C233.013 339.864 233.165 339.848 233.285 339.928C233.829 340.28 234.293 340.792 234.613 341.44C234.781 341.784 234.309 342.128 234.133 341.784C233.845 341.208 233.445 340.76 232.965 340.448C232.805 340.344 232.773 340.12 232.901 339.976L232.917 339.968Z" fill="white"/>
<path d="M190.413 311.488L195.309 298.472C195.309 298.472 205.549 302.024 205.301 302.04C205.053 302.056 198.805 314.92 198.805 314.92L190.421 311.496L190.413 311.488Z" fill="#407BFF"/>
<path d="M200.101 313.432C200.773 312.416 198.869 312.12 197.373 312.048C196.285 311.992 195.253 311.552 194.453 310.816L194.149 310.536L194.821 308.696C195.397 307.112 195.109 305.76 193.581 305.216C192.829 304.944 190.701 305.424 190.101 306.424C188.501 309.096 185.541 308.672 185.541 308.672C185.541 308.672 175.517 308.04 172.821 307.624C171.221 307.376 168.861 307.128 167.037 308.24C166.517 308.56 165.437 310 164.845 311.048L181.477 320.192C181.477 320.192 184.133 321 184.877 321.28C185.613 321.56 186.453 322.848 186.453 322.848L193.813 326.544C194.229 325.92 196.133 323.032 196.637 322.28C198.805 319.056 199.501 314.352 200.109 313.432H200.101Z" fill="#263238"/>
<path d="M180.213 307.872C180.357 307.824 180.509 307.896 180.573 308.024C180.885 308.632 181.045 309.344 181.005 310.112C180.981 310.512 180.365 310.584 180.389 310.176C180.421 309.496 180.285 308.872 180.013 308.336C179.925 308.16 180.013 307.936 180.205 307.872H180.213Z" fill="white"/>
<path d="M182.597 307.984C182.741 307.936 182.893 308.008 182.957 308.136C183.269 308.744 183.429 309.456 183.389 310.224C183.365 310.624 182.749 310.696 182.773 310.288C182.805 309.608 182.669 308.984 182.397 308.448C182.309 308.272 182.397 308.048 182.589 307.984H182.597Z" fill="white"/>
<path d="M184.989 308.264C185.133 308.216 185.285 308.288 185.349 308.416C185.661 309.024 185.821 309.736 185.781 310.504C185.757 310.904 185.141 310.976 185.165 310.568C185.197 309.888 185.061 309.264 184.789 308.728C184.701 308.552 184.789 308.328 184.981 308.264H184.989Z" fill="white"/>
<path d="M188.341 302.528C188.109 301.592 215.917 229.68 221.189 224.952C228.277 218.592 241.373 224.224 248.717 227.488C256.069 230.752 290.613 246.896 290.613 246.896C290.613 246.896 294.197 263.832 285.805 265.696C283.013 266.32 261.293 264.8 256.757 264.8C253.597 264.8 232.381 250.392 232.381 250.392C232.381 250.392 209.181 307.496 206.613 310.76" fill="#263238"/>
<path d="M221.197 260.184C221.197 261.816 230.037 329.792 230.037 329.792L251.933 327.168C251.933 327.168 245.373 265.08 244.445 259.016C243.509 252.952 241.173 247.232 239.317 244.096C234.437 235.832 218.701 240.496 221.197 260.184Z" fill="#263238"/>
<g opacity="0.3">
<path d="M244.685 258.728C244.141 253.88 242.869 248.832 240.101 244.736C239.245 243.464 238.197 242.208 236.861 241.424C234.981 240.328 232.549 240.08 230.421 240.352C225.589 240.976 221.669 244.704 220.781 249.496C220.357 251.792 220.773 254.224 220.933 256.536C221.349 262.408 221.709 268.28 222.013 274.152C222.053 274.92 223.253 274.928 223.213 274.152C222.829 266.816 222.269 259.488 221.805 252.152C221.549 248.064 223.933 244.016 227.685 242.336C229.949 241.32 232.589 241.168 234.949 241.912C236.405 242.368 237.469 243.272 238.405 244.448C241.557 248.392 242.917 253.8 243.469 258.72C243.557 259.48 244.757 259.488 244.669 258.72L244.685 258.728Z" fill="black"/>
</g>
<g opacity="0.3">
<path d="M240.749 328.248C239.517 317.192 238.285 306.144 237.061 295.088C235.725 283.104 234.397 271.112 233.061 259.128C232.405 253.232 231.749 247.328 231.093 241.432C231.005 240.672 229.805 240.664 229.893 241.432C231.125 252.488 232.357 263.536 233.581 274.592C234.917 286.576 236.245 298.568 237.581 310.552C238.237 316.448 238.893 322.352 239.549 328.248C239.637 329.008 240.837 329.016 240.749 328.248Z" fill="black"/>
</g>
<g opacity="0.3">
<path d="M262.445 234.52C266.973 236.624 271.509 238.728 276.037 240.84C276.381 241 276.693 240.488 276.341 240.32C271.813 238.216 267.277 236.112 262.749 234C262.405 233.84 262.093 234.352 262.445 234.52Z" fill="black"/>
</g>
<path d="M293.221 166.792L287.653 162.832C287.653 162.832 283.165 203.208 282.597 207.192C282.029 211.176 277.853 219.328 278.237 227.104C278.613 234.88 282.101 260.888 282.725 261.392C284.085 262.488 308.917 261.136 310.621 258.672C312.325 256.208 299.669 215.944 299.669 215.944L301.485 192.8L300.509 167.832L293.213 166.792H293.221Z" fill="#407BFF"/>
<g opacity="0.3">
<path d="M287.661 162.832C287.661 162.832 283.173 203.208 282.605 207.192C282.533 207.704 282.397 208.288 282.221 208.928C285.733 202.824 289.237 196.72 292.749 190.616C293.765 188.84 294.821 186.792 294.189 184.848C293.933 184.064 293.413 183.352 293.357 182.528C293.237 180.672 295.397 179.56 296.229 177.896C297.037 176.272 296.493 174.328 295.901 172.616C295.229 170.688 294.509 168.784 293.749 166.888L293.229 166.792L287.661 162.832Z" fill="#263238"/>
</g>
<g opacity="0.3">
<path d="M287.013 231.864C290.045 231.528 293.029 230.856 295.909 229.832C296.269 229.704 296.117 229.128 295.749 229.256C292.925 230.256 289.997 230.936 287.013 231.264C286.637 231.304 286.629 231.904 287.013 231.864Z" fill="black"/>
</g>
<path d="M300.517 167.84C300.517 167.84 308.229 168.488 310.661 179.576C312.845 189.52 311.981 213.392 307.997 217.816C304.013 222.24 273.717 218.72 273.717 218.72L273.949 208.648L297.437 206.592L298.293 184.832L300.517 167.832V167.84Z" fill="#407BFF"/>
<g opacity="0.3">
<path d="M299.165 179.24C299.213 177.464 299.317 175.672 299.749 173.944C300.101 172.568 300.685 171.296 301.389 170.072C301.581 169.736 301.061 169.432 300.869 169.768C300.141 171.04 299.525 172.36 299.165 173.784C298.717 175.56 298.605 177.408 298.557 179.24C298.549 179.624 299.149 179.624 299.157 179.24H299.165Z" fill="black"/>
</g>
<path d="M277.525 208.848C276.789 208.512 273.245 208.456 270.797 208.464C270.373 208.2 269.997 208 269.701 207.888C268.021 207.272 267.621 208.552 267.621 208.552C267.621 208.552 267.269 207.448 265.805 207.048C264.349 206.648 263.501 208.6 263.501 208.6C263.501 208.6 263.637 207.936 261.509 207.8C259.389 207.664 258.101 213.864 258.101 213.864C258.101 213.864 255.669 214.304 255.093 215.368C254.517 216.432 256.461 216.696 256.461 216.696C258.053 217.048 258.365 216.56 258.365 216.56C258.365 216.56 258.677 217.264 260.093 217.336C261.429 217.408 261.621 216.144 261.637 216.008C261.613 216.192 261.541 217.352 263.541 217.336C265.709 217.32 265.757 216.288 265.757 216.288C265.981 217.352 267.397 217.44 268.501 217.264C269.605 217.088 270.053 215.184 270.053 215.184C270.053 215.184 271.117 216.912 272.301 217.04C273.301 217.152 275.109 215.848 275.605 214.536C277.109 212.472 278.309 209.2 277.525 208.84V208.848Z" fill="#FDBBB5"/>
<g opacity="0.3">
<path d="M278.077 208.632C283.765 207.904 289.453 207.184 295.133 206.416C296.013 206.296 296.941 206.24 297.805 206.04C297.941 206.008 298.013 205.88 298.029 205.752C298.525 199.904 299.029 194.064 299.525 188.216C299.597 187.376 299.669 186.536 299.741 185.688C299.773 185.304 299.173 185.304 299.141 185.688C298.645 191.536 298.141 197.376 297.645 203.224C297.573 204.064 297.501 204.904 297.429 205.752C297.501 205.656 297.573 205.56 297.653 205.464C295.429 205.976 293.045 206.096 290.781 206.392C287.349 206.84 283.909 207.28 280.477 207.72C279.685 207.824 278.885 207.928 278.093 208.024C277.717 208.072 277.709 208.672 278.093 208.624L278.077 208.632Z" fill="black"/>
</g>
<g opacity="0.3">
<path d="M297.165 206.008C299.277 207.192 301.141 208.808 302.589 210.744C302.821 211.048 303.341 210.744 303.109 210.44C301.589 208.416 299.677 206.72 297.469 205.488C297.133 205.296 296.829 205.816 297.165 206.008Z" fill="black"/>
</g>
<g opacity="0.3">
<path d="M258.741 216.624C258.701 215.768 258.661 214.912 258.621 214.048C258.621 213.888 258.485 213.744 258.317 213.744C258.157 213.744 258.013 213.88 258.013 214.048C258.053 214.904 258.093 215.76 258.133 216.624C258.133 216.784 258.269 216.928 258.429 216.928C258.589 216.928 258.733 216.792 258.725 216.624H258.741Z" fill="black"/>
</g>
<g opacity="0.3">
<path d="M262.045 216.448C262.325 213.936 262.773 211.448 263.373 208.992C263.461 208.616 262.885 208.456 262.797 208.832C262.181 211.344 261.733 213.888 261.453 216.448C261.413 216.832 262.013 216.832 262.053 216.448H262.045Z" fill="black"/>
</g>
<g opacity="0.3">
<path d="M265.701 216.968C266.685 215.04 267.429 213.008 267.901 210.896C267.989 210.52 267.405 210.36 267.325 210.736C266.861 212.792 266.141 214.784 265.181 216.664C265.005 217.008 265.525 217.312 265.701 216.968Z" fill="black"/>
</g>
<g opacity="0.3">
<path d="M270.269 215.48C270.773 214.136 271.141 212.744 271.373 211.32C271.437 210.944 270.853 210.776 270.797 211.16C270.573 212.576 270.205 213.968 269.693 215.32C269.557 215.68 270.133 215.84 270.269 215.48Z" fill="black"/>
</g>
<g opacity="0.3">
<path d="M270.885 208.672C272.013 209.808 273.149 210.944 274.277 212.072C274.549 212.344 274.973 211.92 274.701 211.648C273.573 210.512 272.437 209.376 271.309 208.248C271.037 207.976 270.613 208.4 270.885 208.672Z" fill="black"/>
</g>
<path d="M182.205 216.656H127.749V219.592H182.205V216.656Z" fill="#407BFF"/>
<path opacity="0.9" d="M182.205 216.656H127.749V219.592H182.205V216.656Z" fill="white"/>
<path opacity="0.3" d="M182.197 216.656H154.973V219.592H182.197V216.656Z" fill="black"/>
<path d="M180.133 213.72H125.677V216.656H180.133V213.72Z" fill="#407BFF"/>
<path opacity="0.9" d="M180.133 213.72H125.677V216.656H180.133V213.72Z" fill="white"/>
<path opacity="0.3" d="M180.125 213.72H152.901V216.656H180.125V213.72Z" fill="black"/>
<g opacity="0.3">
<path d="M125.949 216.672H179.757C180.141 216.672 180.141 216.072 179.757 216.072H125.949C125.565 216.072 125.565 216.672 125.949 216.672Z" fill="black"/>
</g>
<path d="M182.157 210.768H127.701V213.704H182.157V210.768Z" fill="#407BFF"/>
<path opacity="0.9" d="M182.157 210.768H127.701V213.704H182.157V210.768Z" fill="white"/>
<path opacity="0.3" d="M182.149 210.768H154.925V213.704H182.149V210.768Z" fill="black"/>
<g opacity="0.3">
<path d="M127.973 213.728H181.749C182.133 213.728 182.133 213.128 181.749 213.128H127.973C127.589 213.128 127.589 213.728 127.973 213.728Z" fill="black"/>
</g>
<path d="M152.653 227.816L131.165 351.12H134.917L160.837 227.816H152.653Z" fill="#263238"/>
<path opacity="0.6" d="M152.653 227.816L131.165 351.12H134.917L160.837 227.816H152.653Z" fill="white"/>
<path opacity="0.3" d="M152.653 227.816C152.653 227.816 151.973 231.688 151.957 231.672C151.941 231.656 159.997 231.672 159.997 231.672L160.837 227.816L152.957 227.728" fill="black"/>
<path d="M122.981 229.016L101.493 351.12H105.245L131.165 229.016H122.981Z" fill="#263238"/>
<path opacity="0.6" d="M122.981 229.016L101.493 351.12H105.245L131.165 229.016H122.981Z" fill="white"/>
<path opacity="0.3" d="M122.981 228.984C122.981 228.984 122.301 232.856 122.285 232.84C122.269 232.824 130.325 232.84 130.325 232.84L131.165 228.984L123.285 228.896" fill="black"/>
<path d="M337.949 228.472L359.581 351.376H355.805L329.709 228.472H337.949Z" fill="#263238"/>
<path opacity="0.6" d="M337.949 228.472L359.581 351.376H355.805L329.709 228.472H337.949Z" fill="white"/>
<path d="M305.805 228.472L327.437 351.376H323.653L297.565 228.472H305.805Z" fill="#263238"/>
<path opacity="0.6" d="M305.805 228.472L327.437 351.376H323.653L297.565 228.472H305.805Z" fill="white"/>
<path d="M361.525 219.8H112.093V228.984H361.525V219.8Z" fill="#A24E3F"/>
<path opacity="0.3" d="M361.517 219.8H319.541V228.984H361.517V219.8Z" fill="black"/>
<path d="M277.813 217.024H221.877V219.8H277.813V217.024Z" fill="#263238"/>
<path opacity="0.5" d="M277.813 217.024H221.877V219.8H277.813V217.024Z" fill="white"/>
<path d="M228.805 199.312C228.997 201.768 227.437 203.76 225.317 203.76H158.029C155.893 203.76 154.013 201.768 153.813 199.312L149.813 149.792C149.773 149.28 149.805 148.792 149.901 148.344C150.277 146.6 151.613 145.344 153.301 145.344H220.589C222.725 145.344 224.605 147.336 224.805 149.792L228.805 199.312Z" fill="#263238"/>
<path opacity="0.7" d="M228.805 199.312C228.997 201.768 227.437 203.76 225.317 203.76H158.029C155.893 203.76 154.013 201.768 153.813 199.312L149.813 149.792C149.773 149.28 149.805 148.792 149.901 148.344C150.277 146.6 151.613 145.344 153.301 145.344H220.589C222.725 145.344 224.605 147.336 224.805 149.792L228.805 199.312Z" fill="white"/>
<path d="M225.077 203.76H158.029C155.893 203.76 154.013 201.768 153.813 199.312L149.813 149.792C149.773 149.28 149.805 148.792 149.901 148.344H216.949C219.069 148.344 220.957 150.336 221.165 152.792L225.165 202.312C225.205 202.824 225.173 203.312 225.077 203.76Z" fill="#263238"/>
<path opacity="0.5" d="M225.077 203.76H158.029C155.893 203.76 154.013 201.768 153.813 199.312L149.813 149.792C149.773 149.28 149.805 148.792 149.901 148.344H216.949C219.069 148.344 220.957 150.336 221.165 152.792L225.165 202.312C225.205 202.824 225.173 203.312 225.077 203.76Z" fill="white"/>
<path d="M179.957 192.216L193.485 192.272L190.869 216.64L204.149 216.848V219.712L168.365 219.8V216.968L176.989 216.8L179.957 192.216Z" fill="#263238"/>
<path opacity="0.3" d="M193.485 192.272C193.445 192.632 196.477 203.76 196.477 203.76H192.245L193.477 192.272H193.485Z" fill="black"/>
<path opacity="0.3" d="M178.565 203.76L179.957 192.216L176.461 203.76H178.565Z" fill="black"/>
<path opacity="0.6" d="M179.957 192.216L193.485 192.272L190.869 216.64L204.149 216.848V219.712L168.365 219.8V216.968L176.989 216.8L179.957 192.216Z" fill="white"/>
<path d="M347.445 216.856H292.989V219.792H347.445V216.856Z" fill="#407BFF"/>
<path opacity="0.8" d="M347.445 216.856H292.989V219.792H347.445V216.856Z" fill="white"/>
<path opacity="0.3" d="M347.437 216.856H320.213V219.792H347.437V216.856Z" fill="black"/>
<path d="M345.373 213.92H290.917V216.856H345.373V213.92Z" fill="#407BFF"/>
<path opacity="0.8" d="M345.373 213.92H290.917V216.856H345.373V213.92Z" fill="white"/>
<path opacity="0.3" d="M345.365 213.92H318.141V216.856H345.365V213.92Z" fill="black"/>
<g opacity="0.3">
<path d="M291.189 216.872H344.997C345.381 216.872 345.381 216.272 344.997 216.272H291.189C290.805 216.272 290.805 216.872 291.189 216.872Z" fill="black"/>
</g>
<path d="M347.389 210.976H292.933V213.912H347.389V210.976Z" fill="#407BFF"/>
<path opacity="0.8" d="M347.389 210.976H292.933V213.912H347.389V210.976Z" fill="white"/>
<path opacity="0.3" d="M347.389 210.976H320.165V213.912H347.389V210.976Z" fill="black"/>
<g opacity="0.3">
<path d="M293.205 213.928H346.981C347.365 213.928 347.365 213.328 346.981 213.328H293.205C292.821 213.328 292.821 213.928 293.205 213.928Z" fill="black"/>
</g>
<path d="M68.7251 314.072C66.5651 313.952 64.533 312.904 62.941 311.44C61.349 309.976 60.173 308.12 59.197 306.2C56.605 301.08 55.349 295.296 55.597 289.568C55.653 288.336 55.7731 287.08 56.3011 285.976C56.8291 284.864 57.8291 283.912 59.0451 283.736C60.8611 283.472 62.4451 284.928 63.6051 286.352C68.8451 292.832 71.5411 301.32 71.0051 309.64C70.8691 311.672 70.197 313.64 68.733 314.072" fill="#407BFF"/>
<path d="M78.3731 302.8C76.5971 299.112 76.4691 294.752 77.6451 290.832C78.8211 286.912 81.2291 283.432 84.2131 280.64C87.4851 277.576 91.6851 275.216 96.1731 275.192C98.0851 275.184 100.157 275.696 101.325 277.208C102.573 278.816 102.469 281.096 101.925 283.056C101.029 286.264 99.1251 289.12 96.8451 291.56C94.5731 293.992 91.9251 296.048 89.2771 298.08C86.3011 300.368 83.0851 302.736 79.3411 303.024" fill="#407BFF"/>
<path d="M78.645 315.232C79.173 311.096 82.389 307.672 86.149 305.856C89.909 304.04 94.173 303.6 98.341 303.392C99.269 303.344 100.221 303.312 101.109 303.592C101.997 303.872 102.821 304.512 103.061 305.416C103.373 306.592 102.629 307.776 101.845 308.712C97.277 314.192 90.133 317.432 83.005 317.248C82.181 317.224 81.341 317.16 80.581 316.84C79.821 316.52 79.141 315.92 78.909 315.128" fill="#407BFF"/>
<path d="M59.0931 286.952C64.0611 299.104 68.0531 311.648 70.9891 324.44C71.8211 328.048 72.5571 331.68 73.2211 335.328C73.2931 335.704 73.8691 335.544 73.7971 335.168C71.4451 322.248 68.0611 309.528 63.6451 297.168C62.3971 293.68 61.0691 290.216 59.6691 286.792C59.5251 286.44 58.9411 286.592 59.0931 286.952Z" fill="#263238"/>
<path d="M74.085 330.352C73.845 322.856 74.437 315.288 76.541 308.064C78.629 300.904 82.229 294.272 87.181 288.688C90.333 285.144 93.957 282.064 97.869 279.384C98.189 279.168 97.885 278.648 97.565 278.864C90.861 283.464 85.013 289.272 80.901 296.328C77.197 302.696 75.021 309.816 74.061 317.096C73.485 321.488 73.341 325.928 73.485 330.352C73.501 330.736 74.101 330.736 74.085 330.352Z" fill="#263238"/>
<path d="M74.3172 320.032C80.2132 313.176 88.4452 308.424 97.3572 306.832C97.7332 306.768 97.5732 306.184 97.1972 306.256C88.1972 307.864 79.8532 312.688 73.8932 319.608C73.6452 319.896 74.0612 320.328 74.3172 320.032Z" fill="#263238"/>
<path d="M62.0691 329.904V320.944H87.0371V329.904C87.0371 329.904 87.5171 345.744 78.7171 347.184H70.3971C61.5971 345.744 62.0771 329.904 62.0771 329.904H62.0691Z" fill="#263238"/>
</g>
<defs>
<clipPath id="clip0_264_6654">
<rect width="400" height="359.968" fill="white" transform="translate(0.517212)"/>
</clipPath>
</defs>
</svg>
